<svg height="491pt" viewBox="0 -5 491.312 491" width="491pt" xmlns="http://www.w3.org/2000/svg"><path d="m437.65625 152.15625h32v96h-32zm0 0" fill="#8d9299"/><path d="m437.65625 8.15625h32v96h-32zm0 0" fill="#8d9299"/><path d="m389.65625 216.15625h-240v-32h240" fill="#a67c52"/><path d="m389.65625 72.15625h-240v-32h240" fill="#a67c52"/><path d="m45.65625 104.15625h104v-96h-104l-40 48zm0 0" fill="#8d9299"/><path d="m53.65625 248.15625h96v-96h-96c-26.511719 0-48 21.488281-48 48s21.488281 48 48 48zm0 0" fill="#8d9299"/><path d="m5.65625 432.15625h480v48h-480zm0 0" fill="#7d5d3e"/><path d="m5.65625 432.15625h456v48h-456zm0 0" fill="#a67c52"/><g fill="#39b54a"><path d="m0 357.8125c19.128906 19.128906 29.65625 44.550781 29.65625 71.597656v2.746094h16v-2.746094c0-31.316406-12.191406-60.765625-34.34375-82.910156zm0 0"/><path d="m93.65625 429.410156v2.746094h16v-2.746094c0-27.046875 10.527344-52.476562 29.65625-71.597656l-11.3125-11.3125c-22.152344 22.152344-34.34375 51.59375-34.34375 82.910156zm0 0"/><path d="m107.3125 325.8125-11.3125-11.3125-28.910156 28.910156c-3.992188-7.351562-9.058594-14.183594-15.136719-20.269531l-8.640625-8.640625-11.3125 11.3125 8.640625 8.640625c13.550781 13.542969 21.015625 31.566406 21.015625 50.734375v46.96875h16v-46.96875c0-8.894531-1.328125-17.582031-3.863281-25.855469zm0 0"/><path d="m176 357.8125c19.128906 19.128906 29.65625 44.550781 29.65625 71.597656v2.746094h16v-2.746094c0-31.316406-12.191406-60.765625-34.34375-82.910156zm0 0"/><path d="m269.65625 429.410156v2.746094h16v-2.746094c0-27.046875 10.527344-52.476562 29.65625-71.597656l-11.3125-11.3125c-22.152344 22.152344-34.34375 51.59375-34.34375 82.910156zm0 0"/><path d="m283.3125 325.8125-11.3125-11.3125-28.910156 28.910156c-3.992188-7.351562-9.058594-14.183594-15.136719-20.269531l-8.640625-8.640625-11.3125 11.3125 8.640625 8.640625c13.550781 13.542969 21.015625 31.566406 21.015625 50.734375v46.96875h16v-46.96875c0-8.894531-1.328125-17.582031-3.863281-25.855469zm0 0"/><path d="m352 357.8125c19.128906 19.128906 29.65625 44.550781 29.65625 71.597656v2.746094h16v-2.746094c0-31.316406-12.191406-60.765625-34.34375-82.910156zm0 0"/><path d="m480 346.5c-22.152344 22.152344-34.34375 51.59375-34.34375 82.910156v2.746094h16v-2.746094c0-27.046875 10.527344-52.476562 29.65625-71.597656zm0 0"/><path d="m459.3125 325.8125-11.3125-11.3125-28.910156 28.910156c-3.992188-7.351562-9.058594-14.183594-15.136719-20.269531l-8.640625-8.640625-11.3125 11.3125 8.640625 8.640625c13.550781 13.542969 21.015625 31.566406 21.015625 50.734375v46.96875h16v-46.96875c0-8.894531-1.328125-17.582031-3.863281-25.855469zm0 0"/></g><path d="m469.65625 112.15625h-64c-13.230469 0-24-10.769531-24-24v-64c0-13.230469 10.769531-24 24-24h64c4.414062 0 8 3.582031 8 8v96c0 4.414062-3.585938 8-8 8zm-64-96c-4.410156 0-8 3.589844-8 8v64c0 4.40625 3.589844 8 8 8h56v-80zm0 0" fill="#6a6e73"/><path d="m429.65625 8.15625h16v96h-16zm0 0" fill="#6a6e73"/><path d="m469.65625 256.15625h-64c-13.230469 0-24-10.769531-24-24v-64c0-13.230469 10.769531-24 24-24h64c4.414062 0 8 3.582031 8 8v96c0 4.414062-3.585938 8-8 8zm-64-96c-4.410156 0-8 3.589844-8 8v64c0 4.40625 3.589844 8 8 8h56v-80zm0 0" fill="#6a6e73"/><path d="m429.65625 152.15625h16v96h-16zm0 0" fill="#6a6e73"/><path d="m93.65625 32.15625h32v16h-32zm0 0" fill="#6a6e73"/><path d="m61.65625 32.15625h16v16h-16zm0 0" fill="#6a6e73"/><path d="m77.65625 176.15625h48v16h-48zm0 0" fill="#6a6e73"/><path d="m45.65625 176.15625h16v16h-16zm0 0" fill="#6a6e73"/></svg>