<svg version="1.1" viewBox="0 0 1000 1000" xmlns="http://www.w3.org/2000/svg" xmlns:xlink="http://www.w3.org/1999/xlink" id="Ebene_1" overflow="hidden"><g><g><path d=" M 486.64 440.42 C 497.42 446.78 508.21 453.15 518.99 459.51 C 544.73 474.7 570.48 489.9 596.22 505.09 C 627.5 523.55 658.77 542.01 690.05 560.47 C 716.97 576.36 743.89 592.25 770.81 608.14 C 779.7 613.39 788.59 618.63 797.47 623.88 C 801.68 626.36 805.83 629.22 810.21 631.4 C 810.41 631.5 810.6 631.63 810.8 631.75 C 816.35 635.03 821.39 626.39 815.85 623.12 C 805.07 616.76 794.28 610.39 783.5 604.03 C 757.76 588.84 732.01 573.64 706.27 558.45 C 674.99 539.99 643.72 521.53 612.44 503.07 C 585.52 487.18 558.6 471.29 531.68 455.4 C 522.79 450.15 513.9 444.91 505.02 439.66 C 500.81 437.18 496.66 434.32 492.28 432.14 C 492.08 432.04 491.89 431.91 491.69 431.79 C 486.13 428.51 481.1 437.15 486.64 440.42 L 486.64 440.42 Z" stroke-width="1" stroke-dasharray="" stroke-dashoffset="1" fill="#006900" fill-opacity="1"/></g></g><g><g><path d=" M 484.53 659.28 C 484.67 696.68 484.81 734.08 484.94 771.48 C 484.96 776.71 484.98 781.93 485 787.16 C 485.02 793.59 495.02 793.61 495 787.16 C 494.86 749.76 494.72 712.36 494.59 674.96 C 494.57 669.73 494.55 664.51 494.53 659.28 C 494.51 652.85 484.51 652.83 484.53 659.28 L 484.53 659.28 Z" stroke-width="1" stroke-dasharray="" stroke-dashoffset="1" fill="#006900" fill-opacity="1"/></g></g><g><g><path d=" M 484.16 437.47 C 484.19 457.77 484.23 478.07 484.26 498.38 C 484.31 530.57 484.37 562.75 484.42 594.94 C 484.43 602.39 484.44 609.84 484.46 617.29 C 484.47 623.72 494.47 623.74 494.46 617.29 C 494.43 596.99 494.39 576.69 494.36 556.38 C 494.31 524.19 494.25 492.01 494.2 459.82 C 494.19 452.37 494.18 444.92 494.16 437.47 C 494.15 431.03 484.15 431.02 484.16 437.47 L 484.16 437.47 Z" stroke-width="1" stroke-dasharray="" stroke-dashoffset="1" fill="#006900" fill-opacity="1"/></g></g><g><g><path d=" M 487.13 715.88 C 448.96 738.29 410.91 760.92 373.2 784.11 C 367.73 787.48 372.74 796.13 378.25 792.74 C 415.95 769.55 454.01 746.92 492.18 724.51 C 497.72 721.25 492.7 712.61 487.13 715.88 L 487.13 715.88 Z" stroke-width="1" stroke-dasharray="" stroke-dashoffset="1" fill="#006900" fill-opacity="1"/></g></g><g><g><path d=" M 487.13 724.51 C 521.73 744.7 556.34 764.9 590.94 785.09 C 595.94 788.01 600.94 790.92 605.93 793.84 C 611.5 797.09 616.54 788.45 610.98 785.21 C 576.38 765.02 541.77 744.82 507.17 724.63 C 502.17 721.71 497.17 718.8 492.18 715.88 C 486.61 712.63 481.57 721.27 487.13 724.51 L 487.13 724.51 Z" stroke-width="1" stroke-dasharray="" stroke-dashoffset="1" fill="#006900" fill-opacity="1"/></g></g><g><g><path d=" M 286.47 549.93 C 251.19 570.84 215.91 591.76 180.63 612.67 C 175.56 615.68 170.49 618.68 165.42 621.69 C 159.89 624.97 164.91 633.62 170.47 630.32 C 205.75 609.41 241.03 588.49 276.31 567.58 C 281.38 564.57 286.45 561.57 291.52 558.56 C 297.05 555.28 292.03 546.64 286.47 549.93 L 286.47 549.93 Z" stroke-width="1" stroke-dasharray="" stroke-dashoffset="1" fill="#006900" fill-opacity="1"/></g></g><g><g><path d=" M 486.64 431.79 C 468.65 442.41 450.65 453.03 432.66 463.65 C 403.81 480.68 374.95 497.71 346.1 514.74 C 339.5 518.64 332.89 522.53 326.29 526.43 C 320.75 529.7 325.78 538.35 331.34 535.06 C 349.33 524.44 367.33 513.82 385.32 503.2 C 414.17 486.17 443.03 469.14 471.88 452.11 C 478.48 448.21 485.09 444.32 491.69 440.42 C 497.23 437.15 492.2 428.5 486.64 431.79 L 486.64 431.79 Z" stroke-width="1" stroke-dasharray="" stroke-dashoffset="1" fill="#006900" fill-opacity="1"/></g></g><g><g><path d=" M 282.02 653.42 C 256.37 668.56 230.71 683.7 205.06 698.84 C 201.41 701 197.75 703.15 194.1 705.31 C 188.56 708.58 193.59 717.23 199.15 713.94 C 224.8 698.8 250.46 683.66 276.11 668.52 C 279.76 666.36 283.42 664.21 287.07 662.05 C 292.61 658.79 287.58 650.14 282.02 653.42 L 282.02 653.42 Z" stroke-width="1" stroke-dasharray="" stroke-dashoffset="1" fill="#006900" fill-opacity="1"/></g></g><g><g><path d=" M 486.79 532.57 C 470.36 542.27 453.93 551.97 437.49 561.67 C 431.95 564.94 436.98 573.59 442.54 570.3 C 458.97 560.6 475.4 550.9 491.84 541.2 C 497.37 537.93 492.35 529.28 486.79 532.57 L 486.79 532.57 Z" stroke-width="1" stroke-dasharray="" stroke-dashoffset="1" fill="#006900" fill-opacity="1"/></g></g><g><g><path d=" M 647.52 636.06 C 680.62 655.59 713.72 675.13 746.81 694.66 C 751.59 697.48 756.37 700.3 761.15 703.12 C 766.7 706.4 771.74 697.76 766.2 694.49 C 733.1 674.96 700 655.42 666.91 635.89 C 662.13 633.07 657.35 630.25 652.57 627.43 C 647.01 624.15 641.97 632.79 647.52 636.06 L 647.52 636.06 Z" stroke-width="1" stroke-dasharray="" stroke-dashoffset="1" fill="#006900" fill-opacity="1"/></g></g><g><g><path d=" M 486.79 541.2 C 500.63 549.37 514.47 557.54 528.31 565.71 C 533.86 568.99 538.9 560.35 533.36 557.08 C 519.52 548.91 505.68 540.74 491.84 532.57 C 486.28 529.29 481.25 537.93 486.79 541.2 L 486.79 541.2 Z" stroke-width="1" stroke-dasharray="" stroke-dashoffset="1" fill="#006900" fill-opacity="1"/></g></g><g><g><path d=" M 280.01 746.83 C 269.08 753.28 258.15 759.73 247.22 766.18 C 241.68 769.45 246.71 778.1 252.27 774.81 C 263.2 768.36 274.13 761.91 285.06 755.46 C 290.59 752.19 285.57 743.54 280.01 746.83 L 280.01 746.83 Z" stroke-width="1" stroke-dasharray="" stroke-dashoffset="1" fill="#006900" fill-opacity="1"/></g></g><g><g><path d=" M 375.74 690.32 C 362.04 698.41 348.34 706.49 334.64 714.58 C 329.1 717.85 334.13 726.5 339.69 723.21 C 353.39 715.12 367.09 707.04 380.79 698.95 C 386.33 695.69 381.3 687.04 375.74 690.32 L 375.74 690.32 Z" stroke-width="1" stroke-dasharray="" stroke-dashoffset="1" fill="#006900" fill-opacity="1"/></g></g><g><g><path d=" M 479.99 628.8 C 472.59 633.17 465.18 637.54 457.78 641.91 C 452.24 645.18 457.27 653.83 462.83 650.54 C 470.23 646.17 477.64 641.8 485.04 637.43 C 490.57 634.16 485.55 625.51 479.99 628.8 L 479.99 628.8 Z" stroke-width="1" stroke-dasharray="" stroke-dashoffset="1" fill="#006900" fill-opacity="1"/></g></g><g><g><path d=" M 642.61 725.56 C 668.58 740.89 694.56 756.22 720.53 771.55 C 724.24 773.74 727.96 775.93 731.67 778.13 C 737.22 781.41 742.26 772.77 736.72 769.5 C 710.75 754.17 684.77 738.84 658.8 723.51 C 655.09 721.32 651.37 719.13 647.66 716.93 C 642.1 713.65 637.06 722.29 642.61 725.56 L 642.61 725.56 Z" stroke-width="1" stroke-dasharray="" stroke-dashoffset="1" fill="#006900" fill-opacity="1"/></g></g><g><g><path d=" M 267.7 794.89 C 282.4 794.89 297.09 794.89 311.79 794.89 C 347.26 794.89 382.73 794.89 418.2 794.89 C 460.96 794.89 503.72 794.89 546.48 794.89 C 583.58 794.89 620.68 794.89 657.78 794.89 C 675.67 794.89 693.74 795.64 711.61 794.89 C 711.86 794.88 712.11 794.89 712.37 794.89 C 718.8 794.89 718.82 784.89 712.37 784.89 C 697.67 784.89 682.98 784.89 668.28 784.89 C 632.81 784.89 597.34 784.89 561.87 784.89 C 519.11 784.89 476.35 784.89 433.59 784.89 C 396.49 784.89 359.39 784.89 322.29 784.89 C 304.4 784.89 286.33 784.14 268.46 784.89 C 268.21 784.9 267.96 784.89 267.7 784.89 C 261.27 784.89 261.26 794.89 267.7 794.89 L 267.7 794.89 Z" stroke-width="1" stroke-dasharray="" stroke-dashoffset="1" fill="#006900" fill-opacity="1"/></g></g><g><g><path d=" M 489.16 863.47 C 550.01 862.43 610.56 849.19 665.49 822.74 C 725.38 793.9 776.46 749.46 814.9 695.37 C 840.43 659.44 860.09 619.66 875.08 578.27 C 877.28 572.21 867.62 569.6 865.44 575.61 C 840.66 644.02 801.95 707.58 747.35 756.25 C 701.61 797.02 646.08 825.69 586.76 840.7 C 554.84 848.78 522.07 852.91 489.17 853.47 C 482.74 853.58 482.72 863.58 489.16 863.47 L 489.16 863.47 Z" stroke-width="1" stroke-dasharray="" stroke-dashoffset="1" fill="#006900" fill-opacity="1"/></g></g><g><g><path d=" M 761.08 754 C 793.48 746.3 830.79 734.63 849.95 705.11 C 864.09 683.33 864.74 656.02 866.89 630.99 C 868.42 613.21 870.64 595.57 875.08 578.26 C 876.22 573.82 869.96 569.23 866.72 573.4 C 856.02 587.16 844.35 600.13 831.34 611.74 C 822.39 619.72 812.79 626.87 803.34 634.24 C 795.66 640.23 788.26 646.55 782.23 654.25 C 774.91 663.58 769.9 674.3 766.26 685.55 C 759.62 706.06 756.94 727.82 754.75 749.18 C 754.09 755.58 764.1 755.53 764.75 749.18 C 766.68 730.34 769.16 711.36 774.4 693.12 C 777.6 681.97 782.03 671.08 789.01 661.73 C 801.27 645.32 820.16 634.64 835.46 621.4 C 849.64 609.13 862.28 595.27 873.78 580.48 C 870.99 578.86 868.21 577.24 865.42 575.62 C 858.19 603.81 857.86 632.58 853.98 661.24 C 852.45 672.58 849.97 684.1 844.65 694.32 C 838.89 705.38 830.1 714.23 819.68 721 C 801.24 732.97 779.59 739.34 758.4 744.37 C 752.17 745.84 754.82 755.48 761.08 754 Z" stroke-width="1" stroke-dasharray="" stroke-dashoffset="1" fill="#006900" fill-opacity="1"/></g></g><g><g><path d=" M 490 853.49 C 429.07 852.48 367.6 839.97 312.93 812.46 C 265.9 788.79 223.69 753.65 197.9 707.19 C 184.03 682.2 175.46 654.48 172.94 626 C 172.38 619.64 162.37 619.58 162.94 626 C 167.67 679.39 192.33 728.18 230.15 765.84 C 271.31 806.82 325.09 833.76 380.83 848.66 C 416.4 858.17 453.21 862.87 490.01 863.48 C 496.44 863.6 496.44 853.6 490 853.49 L 490 853.49 Z" stroke-width="1" stroke-dasharray="" stroke-dashoffset="1" fill="#006900" fill-opacity="1"/></g></g><g><g><path d=" M 329.14 691.39 C 330.11 718.39 331.09 745.4 332.06 772.4 C 332.2 776.27 332.34 780.14 332.48 784.01 C 332.71 790.43 342.71 790.46 342.48 784.01 C 341.51 757.01 340.53 730 339.56 703 C 339.42 699.13 339.28 695.26 339.14 691.39 C 338.91 684.97 328.91 684.94 329.14 691.39 L 329.14 691.39 Z" stroke-width="1" stroke-dasharray="" stroke-dashoffset="1" fill="#006900" fill-opacity="1"/></g></g><g><g><path d=" M 249.96 268.42 C 270.22 269.32 290.51 270.28 310.8 269.98 C 330.26 269.69 349.63 268 368.94 265.65 C 375.25 264.88 375.32 254.87 368.94 255.65 C 349.63 258 330.26 259.69 310.8 259.98 C 290.51 260.28 270.22 259.32 249.96 258.42 C 243.53 258.13 243.54 268.13 249.96 268.42 L 249.96 268.42 Z" stroke-width="1" stroke-dasharray="" stroke-dashoffset="1" fill="#006900" fill-opacity="1"/></g></g><g><g><path d=" M 259.9 238.87 C 291.69 240.2 323.49 238.87 355.11 235.36 C 361.44 234.66 361.51 224.65 355.11 225.36 C 323.49 228.87 291.69 230.2 259.9 228.87 C 253.46 228.6 253.47 238.6 259.9 238.87 L 259.9 238.87 Z" stroke-width="1" stroke-dasharray="" stroke-dashoffset="1" fill="#006900" fill-opacity="1"/></g></g><g><g><path d=" M 303.87 133.85 C 303.87 155.51 303.87 177.17 303.87 198.83 C 303.87 205.26 313.87 205.28 313.87 198.83 C 313.87 177.17 313.87 155.51 313.87 133.85 C 313.87 127.42 303.87 127.41 303.87 133.85 L 303.87 133.85 Z" stroke-width="1" stroke-dasharray="" stroke-dashoffset="1" fill="#006900" fill-opacity="1"/></g></g><path d="" stroke="#48B267" stroke-width="1" stroke-miterlimit="10" stroke-dasharray="" stroke-dashoffset="1" fill="#006900" fill-opacity="1"/><path d="" stroke="#48B267" stroke-width="1" stroke-miterlimit="10" stroke-dasharray="" stroke-dashoffset="1" fill="#006900" fill-opacity="1"/><g><g><path d=" M 287.48 789.89 C 289.4 739.67 290.45 689.41 291.86 639.18 C 293.32 587.56 294.76 535.93 296.23 484.31 C 296.73 466.71 297.19 449.11 297.63 431.5 C 297.84 423.28 298.56 414.84 297.84 406.64 C 297.13 398.46 294.99 390.58 292.53 382.77 C 282.33 350.32 267.91 319.41 254.05 288.42 C 252.61 290.93 251.17 293.44 249.73 295.94 C 289.38 299.25 329.21 299.25 368.86 295.94 C 367.42 293.43 365.98 290.92 364.54 288.42 C 350.18 320.54 335.11 352.62 324.94 386.39 C 322.61 394.13 320.8 402.07 320.54 410.18 C 320.34 416.27 320.74 422.41 320.89 428.5 C 321.02 433.81 321.15 439.12 321.3 444.44 C 321.98 469.51 322.65 494.58 323.55 519.64 C 324.09 534.66 324.63 549.68 325.17 564.7 C 325.4 571.12 335.4 571.15 335.17 564.7 C 334.34 541.49 333.36 518.29 332.68 495.08 C 332.24 480.2 331.87 465.33 331.46 450.45 C 331.36 446.66 331.25 442.87 331.16 439.08 C 330.87 427.52 329.47 415.33 331.09 403.85 C 332.41 394.48 335.63 385.35 338.66 376.43 C 341.82 367.14 345.31 357.96 348.99 348.86 C 356.55 330.18 364.96 311.85 373.18 293.46 C 374.57 290.35 373.03 285.59 368.86 285.94 C 329.21 289.25 289.38 289.25 249.73 285.94 C 245.56 285.59 244.02 290.35 245.41 293.46 C 257.89 321.38 270.8 349.19 280.54 378.22 C 282.87 385.17 285.22 392.19 286.72 399.38 C 288.27 406.8 288.06 414.13 287.87 421.67 C 287.48 437.34 287.09 453.01 286.66 468.68 C 286.05 491.3 285.37 513.93 284.74 536.55 C 282.95 600.15 281.18 663.76 279.35 727.36 C 278.75 748.2 278.27 769.06 277.47 789.89 C 277.24 796.33 287.24 796.32 287.48 789.89 L 287.48 789.89 Z" stroke-width="1" stroke-dasharray="" stroke-dashoffset="1" fill="#006900" fill-opacity="1"/></g></g><g><g><path d=" M 372.34 657.22 C 373.62 710.21 380.98 763.22 388.75 815.58 C 389.69 821.92 399.33 819.23 398.39 812.92 C 390.76 761.44 383.6 709.32 382.34 657.22 C 382.19 650.8 372.19 650.77 372.34 657.22 L 372.34 657.22 Z" stroke-width="1" stroke-dasharray="" stroke-dashoffset="1" fill="#006900" fill-opacity="1"/></g></g><g><g><path d=" M 434.45 627.01 C 440.88 627.01 440.9 617.01 434.45 617.01 C 428.02 617.01 428.01 627.01 434.45 627.01 L 434.45 627.01 Z" stroke-width="1" stroke-dasharray="" stroke-dashoffset="1" fill="#006900" fill-opacity="1"/></g></g><g><g><path d=" M 376.3 689.48 C 394.33 704.85 418.95 708.74 440.4 698.14 C 458.08 689.41 471.17 670.03 465.36 649.94 C 461.21 635.59 449.28 625.21 436.97 617.69 C 437.57 619.97 438.17 622.25 438.76 624.53 C 450.74 607.25 455.63 582.24 439.26 565.9 C 421.6 548.27 394.08 554.32 374.68 565.28 C 376.36 565.28 378.04 565.28 379.73 565.28 C 361.37 554.76 336.65 550.9 322.35 569.96 C 311.69 584.18 312.32 604.79 324.07 618.11 C 324.07 615.75 324.07 613.4 324.07 611.04 C 311.57 622.44 303.7 640 305.2 657.05 C 306.79 675.21 319.07 689.05 336.78 693.29 C 351.39 696.79 366.85 694.51 381.16 690.76 C 387.38 689.13 384.74 679.48 378.5 681.12 C 361.22 685.65 337.16 689.3 323.17 674.96 C 313.71 665.26 313.48 650.41 317.69 638.27 C 320.38 630.51 325.1 623.63 331.15 618.12 C 333.23 616.22 332.87 613 331.15 611.05 C 317.3 595.35 327.12 567.13 348.85 566.21 C 356.45 565.89 363.89 568.26 370.6 571.68 C 375.34 574.09 377.08 575.31 382.04 572.63 C 386.61 570.16 391.36 568.13 396.36 566.71 C 409.34 563.02 425.2 563.84 434.22 575.21 C 444.89 588.67 438.89 606.87 430.13 619.49 C 428.57 621.74 429.76 625.01 431.92 626.33 C 447.05 635.58 463.06 652.14 454.32 671.14 C 447.36 686.28 429.72 694.56 413.64 694.28 C 402.43 694.09 391.85 689.64 383.36 682.4 C 378.5 678.25 371.39 685.29 376.3 689.48 Z" stroke-width="1" stroke-dasharray="" stroke-dashoffset="1" fill="#006900" fill-opacity="1"/></g></g><g><g><path d=" M 566.98 675.37 C 570.73 697.56 571.74 720.31 572.27 742.77 C 572.86 767.73 572.55 792.88 569.71 817.71 C 568.98 824.09 578.99 824.04 579.71 817.71 C 582.61 792.37 582.89 766.7 582.23 741.23 C 581.64 718.37 580.44 695.29 576.62 672.71 C 575.55 666.38 565.91 669.07 566.98 675.37 L 566.98 675.37 Z" stroke-width="1" stroke-dasharray="" stroke-dashoffset="1" fill="#006900" fill-opacity="1"/></g></g><g><g><path d=" M 571.39 705.83 C 588.67 722.56 614.08 736.84 638 725.14 C 655.85 716.41 664.17 695.59 661.13 676.59 C 659.08 663.81 651.82 652.52 642.22 644.05 C 642.48 646.07 642.74 648.09 643 650.11 C 654.21 629.61 657.64 602.66 642.12 583.32 C 625.47 562.55 597.23 564.68 575.02 574.06 C 577.3 574.66 579.58 575.26 581.86 575.85 C 570.06 558.31 549.07 549.95 529.06 558.63 C 510.14 566.83 500.86 586.8 505.52 606.65 C 506.68 604.6 507.85 602.55 509.01 600.5 C 492.07 604.17 480.77 617.75 479.24 634.86 C 477.98 648.96 483.91 665.48 497.34 671.92 C 496.74 669.64 496.14 667.36 495.55 665.08 C 484.41 682.7 484.31 706.54 502.87 719.18 C 526.18 735.05 557.42 721.13 577.45 706.63 C 582.61 702.89 577.63 694.21 572.4 698 C 555.76 710.05 529.74 723.68 509.52 711.58 C 494.17 702.39 495.7 683.57 504.19 670.14 C 505.55 667.99 504.78 664.44 502.4 663.3 C 492.28 658.45 488.42 646.39 489.18 635.82 C 490.13 622.61 498.85 612.94 511.68 610.16 C 514.39 609.57 515.76 606.52 515.17 604.01 C 511.63 588.93 518.78 573.82 533.21 567.68 C 548.42 561.2 564.29 567.63 573.23 580.92 C 574.89 583.38 577.44 583.83 580.07 582.71 C 598 575.14 621.81 573.05 634.97 590.31 C 647.19 606.34 643.39 628.59 634.37 645.09 C 633.36 646.94 633.47 649.67 635.15 651.15 C 648.48 662.9 655.9 680.71 649.47 698.08 C 643.97 712.96 629.09 721.61 613.44 719.02 C 599.8 716.76 588.16 708.18 578.46 698.79 C 573.83 694.28 566.75 701.35 571.39 705.83 Z" stroke-width="1" stroke-dasharray="" stroke-dashoffset="1" fill="#006900" fill-opacity="1"/></g></g></svg>