<svg xmlns="http://www.w3.org/2000/svg" xmlns:xlink="http://www.w3.org/1999/xlink" width="1175.591" height="1050.232" viewBox="0 0 1175.591 1050.232">
  <defs>
    <linearGradient id="linear-gradient" x1="0.949" y1="0.317" x2="-1.136" y2="1.158" gradientUnits="objectBoundingBox">
      <stop offset="0" stop-color="#fff" stop-opacity="0"/>
      <stop offset="0.02" stop-color="#fff" stop-opacity="0"/>
      <stop offset="0.32" stop-color="#fff" stop-opacity="0.388"/>
      <stop offset="0.68" stop-color="#48b267" stop-opacity="0.729"/>
      <stop offset="1" stop-color="#48b267"/>
    </linearGradient>
    <linearGradient id="linear-gradient-2" x1="0.484" y1="3.189" x2="0.514" y2="-2.128" gradientUnits="objectBoundingBox">
      <stop offset="0.01"/>
      <stop offset="0.13" stop-opacity="0.69"/>
      <stop offset="1" stop-opacity="0"/>
    </linearGradient>
  </defs>
  <g id="save_the_earth" transform="translate(119.403 26.46)">
    <path id="Path_1" data-name="Path 1" d="M21.115,810.3c9.4,37.821,22.932,75.264,46.849,106.628,36.382,47.708,93.276,76.831,150.311,99.172,47.018,18.4,96.427,33.445,147.216,34.255,68.965,1.108,135.876-24.016,204.869-25.745,81.6-2.026,160.581,28.717,241.983,33.147,85.86,4.373,170.583-20.417,239.31-70.023a338.182,338.182,0,0,0,43.079-37.146,292.442,292.442,0,0,0,65.786-101.252,311.948,311.948,0,0,0,15.476-58.812c5.4-32.04,6.837-64.836,7.4-97.416,1.773-103.143-7.26-213.715-73.383-295.03-23.214-28.528-52.448-51.977-81.374-75.183L868.9,194.877c-41.784-33.5-83.766-67.105-130.333-94.174C687.075,70.8,630.771,49.375,574.327,29.33c-25.042-8.861-50.479-17.587-77.041-20.342C439.1,2.936,381.754,26.2,331.838,55.534c-46.821,27.5-91.869,63.188-111.143,112.625-16.207,41.387-12.409,87.393-21.975,130.7C178.77,389.277,102.377,455.274,54.88,532.7,3.3,616.769-2.07,716.482,21.115,810.3Z" transform="translate(-127.403 -34.483)" fill="#88e0ee" opacity="0.18"/>
    <path id="Path_2" data-name="Path 2" d="M232.7,129.314a16.053,16.053,0,0,1,13.145,9.353,23.157,23.157,0,0,1,.682,16.533,14.941,14.941,0,0,0-1.264,6.472,13.019,13.019,0,0,0,2.528,5.056,37.743,37.743,0,0,1,7.331,20.932c0,7.584-4.323,15.294-11.376,17.822,4.5,9.455,4.626,21.589-1.972,29.729s-20.578,9.935-27.555,2.123a19.566,19.566,0,0,1-36.327-5.056c-6.623,3.716-15.623.607-19.971-5.612a25.28,25.28,0,0,1-2.326-21.842A64.059,64.059,0,0,1,167,185.257c-5.41-4.1-11.073-8.469-13.651-14.738s-.708-14.94,5.612-17.367a24.016,24.016,0,0,1,23.257-37.035c4.879.556,8.519,3.413,13.348,1.315,3.741-1.643,6.042-6.6,9.151-9.151C218.522,97.057,241.2,111.744,232.7,129.314Z" transform="translate(436.452 139.174)" fill="#48b267"/>
    <path id="Path_3" data-name="Path 3" d="M110.78,220.25C116.441,351.723,224.676,455.4,356.271,455.4S596.1,351.723,601.761,220.25Z" transform="translate(194.601 316.252)" fill="#88e0ee"/>
    <path id="Path_4" data-name="Path 4" d="M333.262,220.25s36.1,192.858,74.777,199.861-74.777,14.94-131.884-72.072c-49.674-75.662-43.3-127.788-43.3-127.788Z" transform="translate(72.53 316.252)" fill="url(#linear-gradient)"/>
    <path id="Path_5" data-name="Path 5" d="M400.755,221.59S380.809,403.78,262.071,421.906s-151.375,3.64-151.375,3.64,73.311,72.5,173.14,45.3S439.256,337.042,439.256,337.042s32.156-89.136,29.451-116.792Z" transform="translate(327.707 316.252)" fill="#88e0ee"/>
    <g id="o1A6vW" transform="translate(453.497 529.578)">
      <path id="Path_6" data-name="Path 6" d="M352.888,238.734c-.506-.708-1.239-1.946-2.123-3.059-2.376-3.21-4.778-3.084-6.295.708-2.528,6.143-5.46,12.362-3.615,19.263a28.465,28.465,0,0,0,3.185,5.814c3.868,6.977,12.842,11.806,9.1,21.943a3.539,3.539,0,0,0,.253,2.907c3.185,4.677,1.138,8.191-1.694,12.235-3.944,5.637-6.724,12.109-10.769,17.7-5.789,7.887-9.126,17.7-17.873,23.232-4.247,2.68-8.873,4.879-12.867,7.862a11.376,11.376,0,0,0-4.171,6.649c-.961,6.977-.961,14.081-1.694,21.109-.581,5.637-1.921,11.249-2.528,16.887a24.292,24.292,0,0,0,.2,9.606,21.867,21.867,0,0,1,.126,14.258c-1.365,4.146-2.528,8.368-3.767,12.64-3.691,11.6-20.881,20.224-33.091,16.558l12.994-6.547c-2.351-2.528-4.171-4.373-6.219-6.522l5.385-3.236-5.056-3.034c.556-2.4,1.112-4.879,1.77-7.913L266.558,419c-.278-2.048-.531-3.792-.834-5.915-4.828-.48-9.682-.885-15.168-1.39.556-3.236,1.087-6.244,1.643-9.252-8.241,2.351-13.247.379-18.682-6.623a83.988,83.988,0,0,0-7.786-7.584c-3.564-3.564-7.584-6.851-7.584-12.64,0-.885-2.1-2.073-3.413-2.654-6.547-2.73-12.235-7.736-20.224-7.078-1.188,0-2.983-1.668-3.716-3.034-3.767-7.255-7.407-14.637-10.921-22.019a8.089,8.089,0,0,1-.379-4.474c.506-3.742,1.34-7.432-3.741-8.823-.758-.228-1.264-1.517-1.871-2.326-3.059-4.323-6.017-8.747-9.252-12.918C162.1,309.087,161.5,300.088,164,297.1c.506-.581,1.517-1.289,2.022-1.163,5.258,1.466,8.165-2.25,11.275-5.056a9.834,9.834,0,0,1,9.227-2.528c2.68.506,5.713-1.188,8.519-.885,5.764.581,8.974-3.286,13.019-6.194,3.135-2.225,7.255-4.2,10.794.43,5.056-3.16,8.873-6.977,9.48-12.994a16.432,16.432,0,0,1,12.817-15.5,26.419,26.419,0,0,1,9.758-.632,8.115,8.115,0,0,0,8.342-3.109c3.135-3.994,5.89-8.646,11.73-9.707.935,0,2.149-1.82,2.351-2.958a6.724,6.724,0,0,1,5.056-5.789,25.031,25.031,0,0,1,4.222-.935,17.873,17.873,0,0,1,5.056,0,24.319,24.319,0,0,0,18.707-5.056c8.241-6.32,21.917-3.034,27.808,5.536l.253.354c1.239,1.77,2.528,3.564,3.893,5.46a38.508,38.508,0,0,1,5.435-3.994c2.68-1.34,5.334-2.528,8.367.126a6.067,6.067,0,0,0,5.764-.455c.455-.379-3.337-11.4-2.958-11.78h16.836c-.228.733-7.584,12.159-7.811,12.64Z" transform="translate(-162.4 -220.28)" fill="#00393a"/>
    </g>
    <path id="Path_7" data-name="Path 7" d="M14.445,342.361c4.677,9.859,12.64,17.7,20.755,24.976A366.94,366.94,0,0,0,97.969,414.1a250.852,250.852,0,0,0,42.444,19.718c66.713,23.409,140.2,14.384,209.417,0,34.709-7.2,70.581-15.7,105.214-8.191,22.752,4.93,43.405,16.432,63.7,27.808l80.339,45.1a285.387,285.387,0,0,0,36.276-47.425,260.8,260.8,0,0,0,22.752-47.2,301.66,301.66,0,0,0,13.9-55.034c-13.6-6.446-35.9-4.525-48.461-6.9-27.378-5.208-54.174-13.247-80.895-21.26l-74.17-22.3c-13.954-4.2-27.808-8.393-41.433-13.777-12.488-5.056-24.6-11-37.515-14.713-20.6-5.941-42.369-5.84-63.781-5.738l-106.453.632a11.2,11.2,0,0,0-5.915,1.112c-4.778,2.983-2.528,10.44.986,14.814,14.713,18.5,39.967,24.547,63.427,26.923,6.952.708,14.131,1.264,20.35,4.4s11.376,9.657,10.542,16.583c-1.188,10.466-13.626,14.966-23.94,17.064q-45.3,9.025-91.31,13.828c-17.114,1.744-34.456,2.983-51.469.43-45-6.724-82.513-39.032-126.929-48.84C8.908,320.165,9.768,332.527,14.445,342.361Z" transform="translate(377.368 383.36)" fill="#faaf90"/>
    <path id="Path_28" data-name="Path 28" d="M245.086,0C380.443,0,490.172,6.995,490.172,15.623S380.443,31.246,245.086,31.246,0,24.251,0,15.623,109.729,0,245.086,0Z" transform="translate(306.544 522.219)" fill="#032610"/>
    <path id="Path_8" data-name="Path 8" d="M423.915,210.325a253.812,253.812,0,0,0-39.841-5.384c-18.2-1.34-36.655-2.2-54.553,1.39a268.335,268.335,0,0,0-34.785,10.643A674.127,674.127,0,0,1,146.85,250.191c94.849,3.236,189.749,0,284.5-4.626q19.465-.986,38.905-2.048c9.91-.531,27,1.668,35.543-2.68-5.612-8.974-26.7-11.148-36.125-14.713C454.554,220.462,439.689,214.092,423.915,210.325Z" transform="translate(199.383 291.089)" fill="#032610"/>
    <path id="Path_9" data-name="Path 9" d="M185.989,323.746s6.118-138.684,35.392-187.626l-8.823-4.07s-41.484,191.013-42.167,193.061S175.8,333.251,185.989,323.746Z" transform="translate(424.416 181.486)" fill="#00393a"/>
    <path id="Path_10" data-name="Path 10" d="M270.966,125.778a16.027,16.027,0,0,1,15.6,4.1,23.182,23.182,0,0,1,6.5,15.168,14.866,14.866,0,0,0,1.112,6.522,13.1,13.1,0,0,0,4.146,3.918A37.92,37.92,0,0,1,312.6,172.47c2.528,7.053,1.365,15.825-4.348,20.7,7.584,7.23,11.983,18.53,8.721,28.49s-15.749,16.583-25.027,11.73a19.566,19.566,0,0,1-35.771,8.14c-4.879,5.814-14.409,6.092-20.679,1.82a25.28,25.28,0,0,1-9.91-19.617,64.461,64.461,0,0,1,3.716-22.322c-6.5-1.9-13.348-3.994-17.974-8.949s-5.966-13.7-.885-18.227a24.016,24.016,0,0,1,8.62-42.975c4.753-1.213,9.176.177,12.943-3.489,2.907-2.857,3.286-8.317,5.309-11.806C246.268,100.65,272.66,106.338,270.966,125.778Z" transform="translate(251.82 143.518)" fill="#48b267"/>
    <path id="Path_11" data-name="Path 11" d="M239.984,197.513c.177-4.651.3-9.606-2.073-13.6a24.518,24.518,0,0,0-5.486-5.84,62.9,62.9,0,0,0-11.351-8.14,21.867,21.867,0,0,0-13.525-2.528c5.182,4.753,12.64,6.345,18.05,10.744a49.548,49.548,0,0,1,13.954,19.642c4.121,13.626,4.323,30.083,6.446,44.214s4.247,28.692,6.4,42.975c2.225,15.168,6.118,30.866,6.724,46.135,0,2.149,7.988,5.713,14.157-6.8-7.584-22.752-13.853-45.933-19.566-69.165-4.828-19.794-9.1-39.79-12.058-59.963-1.34-9.1-3.615-19.465-3.135-28.667.531-9.733,10.794-19.263,18.985-23.434.556-.3,1.138-.581,1.719-.834.859.607.2,1.972-.506,2.781-6.219,6.927-14.586,12.463-17.847,21.184-.859,2.3-1.315,4.727-2.1,7.053.506-1.491-1.315-5.84-1.087-7.988a64.718,64.718,0,0,0,.657-8.646,113.759,113.759,0,0,1,1.491-20.224l-9.707-.683s4.1,27.3,9.151,61.505" transform="translate(278.454 187.109)" fill="#00393a"/>
    <path id="Path_12" data-name="Path 12" d="M314.346,133.152a16,16,0,0,1,15.6,4.1,23.181,23.181,0,0,1,6.5,15.168,15.168,15.168,0,0,0,1.112,6.522,13.1,13.1,0,0,0,4.146,3.918,37.919,37.919,0,0,1,14.283,16.963c2.528,7.078,1.39,15.85-4.348,20.729,7.584,7.23,11.983,18.53,8.721,28.49s-15.749,16.583-25.027,11.73a19.566,19.566,0,0,1-35.771,8.14c-4.879,5.814-14.409,6.092-20.679,1.82a25.431,25.431,0,0,1-9.91-19.617,64.489,64.489,0,0,1,3.742-22.322c-6.522-1.9-13.348-3.994-18-8.949s-5.941-13.7-.885-18.227a24.016,24.016,0,0,1,8.62-42.975c4.753-1.213,9.177.177,12.943-3.489,2.933-2.857,3.312-8.317,5.309-11.806C289.648,108.049,316.039,113.712,314.346,133.152Z" transform="translate(98.777 154.801)" fill="#48b267"/>
    <path id="Path_13" data-name="Path 13" d="M283.364,204.893c.177-4.651.3-9.606-2.048-13.6a24.65,24.65,0,0,0-5.511-5.84,62.9,62.9,0,0,0-11.351-8.14,21.842,21.842,0,0,0-13.525-2.528c5.182,4.753,12.64,6.345,18.05,10.744a49.853,49.853,0,0,1,13.98,19.642c4.1,13.626,4.3,30.083,6.421,44.214s4.272,28.692,6.4,42.975c2.225,15.168,6.118,30.866,6.75,46.135,0,2.149,7.963,5.713,14.131-6.8-7.584-22.752-13.853-45.933-19.541-69.165-4.854-19.794-9.126-39.79-12.084-59.963-1.315-9.1-3.615-19.465-3.109-28.667.506-9.733,10.794-19.263,18.96-23.434.556-.3,1.138-.581,1.719-.834.86.607.228,1.972-.506,2.781-6.219,6.927-14.586,12.463-17.847,21.184-.859,2.3-1.314,4.727-2.1,7.053.506-1.491-1.314-5.84-1.062-7.988a74.391,74.391,0,0,0,.657-8.646,109.324,109.324,0,0,1,1.491-20.224l-9.733-.683s4.1,27.3,9.2,61.505" transform="translate(125.411 198.385)" fill="#00393a"/>
    <path id="Path_14" data-name="Path 14" d="M262.577,170.6a8.9,8.9,0,0,1,8.7,2.3,12.943,12.943,0,0,1,3.64,8.494,8.391,8.391,0,0,0,.632,3.64,7.356,7.356,0,0,0,2.3,2.2,21.21,21.21,0,0,1,7.988,9.48,10.693,10.693,0,0,1-2.528,11.578,15.926,15.926,0,0,1,4.854,15.9c-1.82,5.562-8.772,9.278-13.954,6.573a10.946,10.946,0,0,1-20,4.525,8.949,8.949,0,0,1-11.553,1.036,14.207,14.207,0,0,1-5.536-10.946,36.476,36.476,0,0,1,2.073-12.488,21.437,21.437,0,0,1-10.112-5.056c-2.528-2.755-3.312-7.584-.506-10.112a13.449,13.449,0,0,1,4.828-23.965c2.654-.683,5.056,0,7.23-1.947,1.643-1.593,1.845-4.651,2.983-6.6C248.775,156.565,263.487,159.75,262.577,170.6Z" transform="translate(223.907 224.568)" fill="#48b267"/>
    <path id="Path_15" data-name="Path 15" d="M245.121,210.687a13.753,13.753,0,0,0-1.163-7.584,12.942,12.942,0,0,0-3.059-3.261,33.852,33.852,0,0,0-6.345-4.55,12.185,12.185,0,0,0-7.584-1.416c2.882,2.528,7.028,3.539,10.112,5.991a27.984,27.984,0,0,1,7.811,10.971c2.275,7.584,2.4,16.811,3.59,24.7l3.564,24.041c1.239,8.443,3.413,17.266,3.767,25.785,0,1.213,4.449,3.185,7.887-3.792-4.171-12.64-7.736-25.659-10.921-38.653-2.7-11.047-5.056-22.221-6.724-33.5a83.581,83.581,0,0,1-1.744-16c.278-5.435,6.017-10.769,10.592-13.095l.961-.48c.48.354,0,1.112-.278,1.567-3.489,3.868-8.165,6.952-9.986,11.831-.48,1.289-.733,2.528-1.163,3.944.278-.834-.733-3.261-.607-4.449a38.1,38.1,0,0,0,.379-4.854,60.662,60.662,0,0,1,.834-11.325l-5.435-.379,5.056,34.355" transform="translate(238.937 248.915)" fill="#00393a"/>
    <path id="Path_16" data-name="Path 16" d="M311.364,170.839a9.4,9.4,0,0,1,9.4.986,13.5,13.5,0,0,1,5.056,8.266,9.126,9.126,0,0,0,1.213,3.666,7.332,7.332,0,0,0,2.755,1.921,22.323,22.323,0,0,1,9.783,8.6,11.2,11.2,0,0,1-.708,12.387,16.76,16.76,0,0,1,7.584,15.749c-1.036,6.067-7.584,11-13.474,9a11.477,11.477,0,0,1-20.021,7.862,9.429,9.429,0,0,1-11.831,2.882,14.94,14.94,0,0,1-7.584-10.516,38.4,38.4,0,0,1,.2-13.272,22.272,22.272,0,0,1-11.2-3.615c-3.135-2.528-4.651-7.407-2.123-10.466a14.106,14.106,0,0,1,1.239-25.634c2.528-1.112,5.334-.683,7.179-3.16,1.466-1.921,1.188-5.056,2.048-7.306C294.856,158.427,310.605,159.413,311.364,170.839Z" transform="translate(40.279 226.498)" fill="#48b267"/>
    <path id="Path_17" data-name="Path 17" d="M293.057,213.013a14.434,14.434,0,0,0-2.376-7.584,14.029,14.029,0,0,0-3.716-2.907,36.6,36.6,0,0,0-7.28-3.716,12.766,12.766,0,0,0-8.064-.278c3.413,2.3,7.837,2.528,11.4,4.651a28.894,28.894,0,0,1,9.834,10.112c3.59,7.584,5.056,17.039,7.584,25.052l7.584,24.395c2.528,8.57,6.269,17.367,7.963,26.164.227,1.239,5.056,2.528,7.584-5.056-6.345-12.64-12.084-25.406-17.418-38.4-4.55-11.047-8.772-22.246-12.261-33.7a87.644,87.644,0,0,1-4.323-16.356c-.556-5.663,4.55-12.109,8.924-15.168l.935-.632c.556.278.3,1.138,0,1.668-3.008,4.55-7.356,8.494-8.494,13.853-.278,1.39-.329,2.857-.581,4.272.152-.91-1.289-3.286-1.34-4.55a38.828,38.828,0,0,0-.379-5.056,66.839,66.839,0,0,1-.91-11.881l-5.688.455,10.719,34.861" transform="translate(66.195 251.543)" fill="#00393a"/>
    <path id="Path_18" data-name="Path 18" d="M171.566,174.5a10.112,10.112,0,0,1,8.241,5.738,14.435,14.435,0,0,1,.556,10.289,9.556,9.556,0,0,0-.758,4.07,8.392,8.392,0,0,0,1.593,3.185,23.712,23.712,0,0,1,4.727,12.994,11.907,11.907,0,0,1-6.977,11.249,17.7,17.7,0,0,1-1.011,18.53c-4.045,5.056-12.64,6.345-17.165,1.517a12.185,12.185,0,0,1-22.752-2.907,9.96,9.96,0,0,1-12.488-3.337,15.9,15.9,0,0,1-1.618-13.626,39.991,39.991,0,0,1,6.977-12.261,23.99,23.99,0,0,1-8.62-9.1c-1.643-3.893-.531-9.3,3.387-10.845a14.991,14.991,0,0,1,14.232-23.257c3.034.3,5.334,2.073,8.317.708,2.326-1.036,3.716-4.146,5.663-5.764C162.491,154.508,176.723,163.482,171.566,174.5Z" transform="translate(583.237 222.834)" fill="#48b267"/>
    <path id="Path_19" data-name="Path 19" d="M146.277,214.75a15.168,15.168,0,0,0,1.694-8.418A14.688,14.688,0,0,0,146,201.756a37.743,37.743,0,0,0-4.9-7.2,13.6,13.6,0,0,0-7.356-4.373c2.022,3.868,5.991,6.4,8.266,10.112a30.992,30.992,0,0,1,3.969,14.485c-.506,8.848-3.918,18.53-5.713,27.252s-3.64,17.7-5.486,26.569c-1.921,9.328-3.008,19.389-5.915,28.465-.43,1.264,3.438,5.056,9.733-.961.48-14.915,1.719-29.855,3.362-44.669,1.416-12.64,3.185-25.28,5.789-37.692a95.836,95.836,0,0,1,4.3-17.468c2.376-5.561,10.441-8.949,16.128-9.657h1.188c.379.531-.3,1.188-.885,1.517-5.056,2.7-11.224,4.171-14.991,8.57-.986,1.163-1.795,2.528-2.73,3.691.607-.758.48-3.716,1.062-4.9a43.733,43.733,0,0,0,2.25-5.056,70.78,70.78,0,0,1,5.208-11.553l-5.536-2.528s-3.463,16.862-7.786,37.919" transform="translate(581.274 249.174)" fill="#00393a"/>
    <path id="Path_20" data-name="Path 20" d="M201.049,166.734c-2.528-4.348-6.295-8.115-8.216-12.842a39.562,39.562,0,0,1-1.947-15.522,66.435,66.435,0,0,0-.986,14.511,12.64,12.64,0,0,0-11.376,1.972c5.056.455,10.314.986,14.435,3.918,5.056,3.615,7.23,10.112,7.938,16.28s.3,12.488,1.668,18.581c0-4.55,2.275-8.9,2.781-13.247S203.3,170.45,201.049,166.734Z" transform="translate(419.696 191.142)" fill="#00393a"/>
    <path id="Path_21" data-name="Path 21" d="M184.521,144.454c1.112-2.326,2-5.056,4.3-6.244l-8.368,16.027,13.12,4.171c1.138.354,2.528,1.264,2.073,2.351-3.615.329-7.1-1.264-10.693-1.77a18.656,18.656,0,0,0-19.314,11.174c.329-.809-.758-3.817-.758-4.879a8.772,8.772,0,0,1,.859-4.475c1.138-1.643,3.843-2.351,5.511-3.387a33.268,33.268,0,0,0,13.272-12.968Z" transform="translate(463.931 190.898)" fill="#00393a"/>
    <path id="Path_22" data-name="Path 22" d="M198.209,177.986a9.935,9.935,0,0,1,8.14,5.789,14.233,14.233,0,0,1,.4,10.264,9.328,9.328,0,0,0-.758,4.02,8.114,8.114,0,0,0,1.542,3.185,23.46,23.46,0,0,1,4.525,12.994,11.78,11.78,0,0,1-7.053,11.047,17.7,17.7,0,0,1-1.213,18.429c-4.07,5.056-12.766,6.143-17.064,1.289a12.134,12.134,0,0,1-22.524-3.135,9.935,9.935,0,0,1-12.387-3.489,15.749,15.749,0,0,1-1.441-13.525,39.915,39.915,0,0,1,7.078-12.134,23.991,23.991,0,0,1-8.469-9.126c-1.593-3.893-.43-9.252,3.489-10.769a14.89,14.89,0,0,1,14.409-22.954c3.033.354,5.283,2.124,8.266.834,2.326-1.011,3.741-4.1,5.688-5.688C189.411,158.015,203.467,167.091,198.209,177.986Z" transform="translate(489.451 228.098)" fill="#48b267"/>
    <path id="Path_23" data-name="Path 23" d="M169.178,298.514s3.792-85.951,21.917-116.286L185.61,179.7s-25.684,118.385-26.063,119.573S162.858,304.329,169.178,298.514Z" transform="translate(484.054 244.293)" fill="#00393a"/>
    <path id="Path_24" data-name="Path 24" d="M178.484,201.189a64.18,64.18,0,0,1-5.056-7.938,24.672,24.672,0,0,1-1.188-9.632,41.257,41.257,0,0,0-.607,9,7.887,7.887,0,0,0-7.053,1.213,17.846,17.846,0,0,1,8.949,2.528,14.156,14.156,0,0,1,4.93,10.112A109.041,109.041,0,0,0,179.47,218a72.8,72.8,0,0,1,1.719-8.216,15.167,15.167,0,0,0-2.7-8.6Z" transform="translate(479.169 260.283)" fill="#00393a"/>
    <path id="Path_25" data-name="Path 25" d="M168.107,187.388c.708-1.441,1.239-3.16,2.68-3.868l-5.056,9.935,8.115,2.528c.708.227,1.593.809,1.289,1.466a29.956,29.956,0,0,1-6.623-1.087,11.527,11.527,0,0,0-11.983,6.927c.2-.506-.455-2.376-.455-3.034a5.284,5.284,0,0,1,.531-2.781c.708-1.011,2.376-1.441,3.413-2.1a20.78,20.78,0,0,0,8.089-7.988Z" transform="translate(506.711 260.13)" fill="#00393a"/>
    <path id="Path_27" data-name="Path 27" d="M25.19,322.438l1.567,13.525A250.856,250.856,0,0,0,69.2,355.681c66.713,23.409,140.2,14.384,209.417,0,34.709-7.2,70.581-15.7,105.214-8.191,22.752,4.93,43.405,16.432,63.7,27.808l80.339,45.1a285.392,285.392,0,0,0,36.276-47.425c-16.432-8.494-122.581-62.34-166.441-57.334-47.576,5.435-178.1,28.541-209.366,27.2S25.19,322.438,25.19,322.438Z" transform="translate(448.579 461.501)" fill="url(#linear-gradient-2)"/>
  </g>
</svg>
