<svg xmlns="http://www.w3.org/2000/svg" width="1620.728" height="918.275" viewBox="0 0 1620.728 918.275">
  <g id="undraw_Country_side_k696" transform="translate(-71.601 -145)">
    <path id="Path_106" data-name="Path 106" d="M182.858,667.542c55.03,60.009,33.651,147.676-1.317,217.885-11.708,23.507-24.95,48.377-20.01,73.586,6.041,30.826,38.117,53.367,71.795,65.313,61.393,21.777,134.859,16.588,191.27-13.512,48.751-26.012,83.662-68.313,133.244-93.141,82.975-41.55,188.59-25.859,278.689,2.762,63.744,20.249,133.433,46.582,196.774,25.42,44.569-14.89,75.376-51.131,92.162-89.547,8.1-18.548,13.987-38.624,29.463-53.325,9.2-8.74,21.208-14.944,33.508-20.175,112.319-47.766,254.177-22.187,363.273-75.165,73.679-35.78,120.848-103.273,141.733-173.651s18.452-144.173,13.15-216.651c-3.768-51.508-10.529-106.5-48.9-146.25-40.592-42.053-110.256-57.69-173.222-49.7s-120.039,36.482-170.25,70.036c-62.752,41.936-120.949,94.156-197.995,111.143-52.469,11.569-107.664,5.241-161.778,3.049-90.467-3.664-180.972,4.483-270.94,13.4-86.13,8.54-172.881,17.94-254.933,41.971C370.506,378,323.954,408.874,269.126,430.441c-35.74,14.058-74.712,17.94-108.551,35.845-41.684,22.057-79.9,60.422-69.218,105.315C101.508,614.284,153.649,635.692,182.858,667.542Z" transform="translate(-17.942 25.621)" fill="#88e0ee" opacity="0.1"/>
    <path id="Path_113" data-name="Path 113" d="M694.566,767.7c-.476,1.972-.731,3.258-.731,3.258l-13.41,7.887s-9.753-22.447-4.877-23.054c.756-.091,1.585-.874,2.451-2.123a3.415,3.415,0,0,1,1.56,3.779,9.363,9.363,0,0,1-.963,2.591c-1.829,3.033,6.1,7.887,6.1,7.887C687.361,771.337,691.7,769.535,694.566,767.7Z" transform="translate(149.875 80.319)" opacity="0.1"/>
    <path id="Path_114" data-name="Path 114" d="M716.19,759.086a3.542,3.542,0,0,0-6.03-3.219,11.735,11.735,0,0,0-1.639,2.17c-2.438,4.247-20.725,7.887-24.383,6.673s-16.458-2.427-13.411,6.673,57.909,22.447,57.909,22.447,6.1-8.493,5.486-14.56a69.337,69.337,0,0,1,0-12.133s-8.534,7.887-12.8,2.427c0,0-7.924-4.853-6.1-7.887A9.377,9.377,0,0,0,716.19,759.086Z" transform="translate(112.634 79.89)" fill="#dce6f2"/>
    <path id="Path_124" data-name="Path 124" d="M589.833,299.058a15.018,15.018,0,0,0,13.772-.91" transform="translate(291.613 261.62)" opacity="0.1"/>
    <line id="Line_2" data-name="Line 2" x1="21.772" y1="66.27" transform="translate(1151.762 813.084)" fill="none" stroke="#535461" stroke-miterlimit="10" stroke-width="1"/>
    <path id="Path_130" data-name="Path 130" d="M127.672,723.21s11.209-5.274,22.46-2.336c0,0,5.833-14.52,19.077-16.928" transform="translate(1004.224 100.108)" fill="none" stroke="#535461" stroke-miterlimit="10" stroke-width="1"/>
    <path id="Path_131" data-name="Path 131" d="M106.672,756s19.061-13.776,33.008-9.6c0,0,15.753-18.7,26.589-17.492" transform="translate(1019.806 90.195)" fill="none" stroke="#535461" stroke-miterlimit="10" stroke-width="1"/>
    <path id="Path_132" data-name="Path 132" d="M88.672,794.647s16.292-11.783,36.439-11.008c0,0,15.332-18.489,29.779-19.693" transform="translate(1042.02 76.227)" fill="none" stroke="#535461" stroke-miterlimit="10" stroke-width="1"/>
    <path id="Path_133" data-name="Path 133" d="M66.422,819.205a42.715,42.715,0,0,1,7.781-2.789s12.555-16.325,37.688-11.008" transform="translate(1098.415 60.148)" fill="none" stroke="#535461" stroke-miterlimit="10" stroke-width="1"/>
    <path id="Path_134" data-name="Path 134" d="M263.673,733.025s-19.866-32.507,29.5-80.667,46.353-57.189,42.139-64.413c0,0,39.731,4.816,31.3,64.413s-44.547,80.667-44.547,80.667Z" transform="translate(726.154 146.277)" fill="#88e0ee"/>
    <path id="Path_135" data-name="Path 135" d="M298.145,733.025s14.749-42.741,37.022-68.627,18.06-68.627,6.622-76.453" transform="translate(719.674 146.277)" fill="none" stroke="#535461" stroke-miterlimit="10" stroke-width="2"/>
    <path id="Path_137" data-name="Path 137" d="M102.859,410.866c8.871,9,9.454,22.812,9.454,22.812s-13.8-.786-22.671-9.789-9.454-22.812-9.454-22.812S93.987,401.864,102.859,410.866Z" transform="translate(1089.705 220.653)" fill="#0197a5"/>
    <path id="Path_138" data-name="Path 138" d="M923.858,459.866c8.871,9,9.454,22.812,9.454,22.812s-13.8-.786-22.671-9.789-9.454-22.812-9.454-22.812S914.987,450.863,923.858,459.866Z" transform="translate(-225.527 201.15)" fill="#6c63ff"/>
    <path id="Path_139" data-name="Path 139" d="M171.349,448.468c11.69-4.805,24.694-.12,24.694-.12s-5.949,12.477-17.639,17.282-24.694.12-24.694.12S159.659,453.274,171.349,448.468Z" transform="translate(961.717 202.654)" fill="#6c63ff"/>
    <ellipse id="Ellipse_7" data-name="Ellipse 7" cx="5.219" cy="5.219" rx="5.219" ry="5.219" transform="translate(817.778 672.003)" fill="#fc6681"/>
    <ellipse id="Ellipse_8" data-name="Ellipse 8" cx="5.219" cy="5.219" rx="5.219" ry="5.219" transform="translate(805.601 727.669)" fill="#fc6681"/>
    <path id="Path_141" data-name="Path 141" d="M532.378,608.346s19.866-22.274,27.089,5.418,11.438,31.3,25.885,24.08,29.5,27.089-6.02,51.771-15.652,49.062-15.652,49.062H436.662s-16.856-49.062,19.866-65.918,35.517-29.5,34.313-46.353S532.378,608.346,532.378,608.346Z" transform="translate(388.521 141.529)" fill="#0f591c"/>
    <path id="Path_142" data-name="Path 142" d="M579.262,599.876s-82.472,108.7-54.179,138.8" transform="translate(358.493 141.529)" fill="none" stroke="#535461" stroke-miterlimit="10" stroke-width="2"/>
    <path id="Path_143" data-name="Path 143" d="M560.069,651.4s-19.517,16.61-51.423,8.182-24.039-30.049-24.039-30.049" transform="translate(399.009 129.726)" fill="none" stroke="#535461" stroke-miterlimit="10" stroke-width="2"/>
    <path id="Path_150" data-name="Path 150" d="M917.767,739.016s-46.786-70.484-22.963-136.34" transform="translate(-202.068 140.414)" fill="none" stroke="#535461" stroke-miterlimit="10" stroke-width="1"/>
    <path id="Path_153" data-name="Path 153" d="M308.767,739.016s-46.786-70.484-22.963-136.34" transform="translate(773.543 140.414)" fill="none" stroke="#535461" stroke-miterlimit="10" stroke-width="1"/>
    <path id="Path_154" data-name="Path 154" d="M609.963,738.358s88.578-19.8-24.126-135.682c0,0-48.583,46.044-30.76,103.284,7.166,23.014,30.218,37.222,53.566,32.669Q609.3,738.5,609.963,738.358Z" transform="translate(275.455 140.414)" fill="#6c63ff"/>
    <path id="Path_155" data-name="Path 155" d="M610.439,738.358c1.945-.435,86.671-21.764-24.126-135.682,0,0-48.583,46.044-30.76,103.284,7.166,23.014,30.218,37.222,53.566,32.669Q609.774,738.5,610.439,738.358Z" transform="translate(274.98 140.414)" fill="#fff" opacity="0.4"/>
    <path id="Path_156" data-name="Path 156" d="M637.767,739.016s-46.786-70.484-22.963-136.34" transform="translate(246.488 140.414)" fill="none" stroke="#535461" stroke-miterlimit="10" stroke-width="1"/>
    <path id="Path_159" data-name="Path 159" d="M1089.764,739.016s-46.786-70.484-22.963-136.34" transform="translate(-477.606 140.414)" fill="none" stroke="#535461" stroke-miterlimit="10" stroke-width="1"/>
    <path id="Path_162" data-name="Path 162" d="M815.767,739.016s-46.786-70.484-22.963-136.34" transform="translate(-38.666 140.414)" fill="none" stroke="#535461" stroke-miterlimit="10" stroke-width="1"/>
    <path id="Path_165" data-name="Path 165" d="M735.329,692.3c-19.461,36.092-60.765,51.585-60.765,51.585s-9.751-43.023,9.711-79.115,60.765-51.585,60.765-51.585S754.79,656.2,735.329,692.3Z" transform="translate(98.2 136.234)" fill="#3f3d56"/>
    <path id="Path_166" data-name="Path 166" d="M632.68,715.095c-35.136,21.139-48.668,63.126-48.668,63.126s43.435,7.715,78.57-13.424,48.668-63.126,48.668-63.126S667.815,693.956,632.68,715.095Z" transform="translate(187.472 101.56)" fill="#6c63ff"/>
    <path id="Path_167" data-name="Path 167" d="M547.329,692.3c-19.461,36.092-60.765,51.585-60.765,51.585s-9.751-43.023,9.711-79.115,60.765-51.585,60.765-51.585S566.79,656.2,547.329,692.3Z" transform="translate(399.374 136.234)" fill="#48b267"/>
    <path id="Path_169" data-name="Path 169" d="M366.022,497.39c33.667,50.4,25.311,115.076,25.311,115.076s-62.942-17.047-96.61-67.45S269.413,429.94,269.413,429.94,332.355,446.988,366.022,497.39Z" transform="translate(696.408 209.165)" fill="#48b267"/>
    <path id="Path_170" data-name="Path 170" d="M210.861,483.361c3.287,60.524,48.759,107.264,48.759,107.264s40.144-51.389,36.857-111.913-48.759-107.264-48.759-107.264S207.575,422.837,210.861,483.361Z" transform="translate(826.801 232.446)" fill="#48b267"/>
    <path id="Path_171" data-name="Path 171" d="M805.471,569.439c-1.267,68.637,39.094,93.352,89.424,94.282q1.754.032,3.491.025,3.5-.011,6.931-.191c45.484-2.378,81.243-26.919,82.422-90.751,1.22-66.059-81.668-150.981-87.886-157.262-.005,0-.005,0-.011-.006-.236-.239-.357-.359-.357-.359S806.735,500.807,805.471,569.439Z" transform="translate(-222.328 215.041)" fill="#0f591c"/>
    <path id="Path_172" data-name="Path 172" d="M926.816,653.287,894.345,606.1l32.461,52.3-.009,5.349q3.5-.011,6.931-.191L931.4,594.827l.038-.531-.06-.1-.221-6.495,34.456-51.193L931.15,582.837l-.109,1.374-1.755-51.929,29.666-53.011L929.1,523.159l-.839-107.614,0-.358-.007.352-1.1,84.833-27.922-34.155,27.911,41.462-.1,46.467L901.2,509.074l25.821,51.9-.057,25.838-37.552-62.768,37.537,71.782Z" transform="translate(-250.741 215.037)" fill="#3f3d56"/>
    <path id="Path_173" data-name="Path 173" d="M570.475,569.439c-1.267,68.637,39.094,93.352,89.424,94.282q1.754.032,3.491.025,3.5-.011,6.931-.191c45.483-2.378,81.243-26.919,82.422-90.751,1.22-66.059-81.668-150.981-87.886-157.262-.005,0-.005,0-.011-.006-.236-.239-.357-.359-.357-.359S571.742,500.807,570.475,569.439Z" transform="translate(154.133 215.041)" fill="#0197a5"/>
    <path id="Path_174" data-name="Path 174" d="M691.813,653.287,659.342,606.1,691.8,658.4l-.009,5.349q3.5-.011,6.931-.191L696.4,594.827l.038-.531-.06-.1-.221-6.495,34.456-51.193-34.466,46.331-.109,1.374-1.755-51.929,29.666-53.011L694.1,523.159l-.839-107.614,0-.358-.007.352-1.1,84.833L664.23,466.217l27.911,41.462-.1,46.467L666.2,509.074l25.821,51.9-.057,25.838-37.549-62.768,37.534,71.782Z" transform="translate(125.729 215.037)" fill="#00393a"/>
    <path id="Path_175" data-name="Path 175" d="M851.471,571.439c-1.267,68.637,39.094,93.352,89.424,94.282q1.753.032,3.491.025,3.5-.011,6.931-.191c45.484-2.377,81.243-26.919,82.422-90.751,1.22-66.059-81.668-150.981-87.886-157.262-.006,0-.006,0-.011-.006-.236-.239-.357-.359-.357-.359S852.735,502.807,851.471,571.439Z" transform="translate(-296.02 214.245)" fill="#88e0ee"/>
    <path id="Path_176" data-name="Path 176" d="M972.816,655.287,940.345,608.1l32.461,52.3-.009,5.349q3.5-.011,6.931-.191L977.4,596.827l.038-.531-.06-.1-.221-6.495,34.456-51.193L977.15,584.837l-.109,1.374-1.755-51.929,29.666-53.011L975.1,525.159l-.839-107.614,0-.358-.006.352-1.1,84.833-27.922-34.155,27.911,41.462-.1,46.467L947.2,511.074l25.821,51.9-.057,25.838-37.552-62.768,37.537,71.782Z" transform="translate(-324.433 214.241)" fill="#0197a5"/>
    <path id="Path_177" data-name="Path 177" d="M15.475,569.439c-1.267,68.637,39.094,93.352,89.424,94.282q1.754.032,3.491.025,3.5-.011,6.931-.191c45.484-2.378,81.243-26.918,82.422-90.751,1.22-66.059-81.668-150.981-87.886-157.262-.006,0-.006,0-.011-.006-.236-.239-.357-.359-.357-.359S16.742,500.807,15.475,569.439Z" transform="translate(1043.236 215.041)" fill="#0197a5"/>
    <path id="Path_178" data-name="Path 178" d="M136.813,653.287,104.342,606.1,136.8,658.4l-.009,5.349q3.5-.011,6.931-.191L141.4,594.827l.038-.531-.06-.1-.221-6.495,34.456-51.193-34.466,46.331-.109,1.374-1.755-51.929,29.666-53.011L139.1,523.159l-.839-107.614,0-.358-.006.352-1.1,84.833L109.23,466.218,137.14,507.68l-.1,46.467L111.2,509.075l25.821,51.9-.057,25.838L99.411,524.05l37.534,71.782Z" transform="translate(1014.833 215.037)" fill="#00393a"/>
    <path id="Path_179" data-name="Path 179" d="M235.238,741.38q32.492-5.5,62.5-9.455l-7.907-15.331c2.666-.926,14.381,7.854,14.381,7.854l-10.377-44.5C307.241,681.562,314.059,727,314.059,727l14.983-15.363-7.254,17.272c61.219-7.209,114.09-9.883,158.56-9.979L473.58,705.81c2.666-.926,14.381,7.854,14.381,7.854l-10.377-44.5c13.41,1.617,20.228,47.058,20.228,47.058l14.983-15.363-7.683,18.294a890.672,890.672,0,0,1,91.15,6.191c-6.845-20.442-30.1-39.883-30.1-39.883,17.759,5.282,27.075,14.133,31.943,22.384A358.425,358.425,0,0,0,577.387,584s36.707,79.88,32.024,133.5l-.56,9.521c31.12,4.456,46.766,9.092,46.766,9.092Z" transform="translate(453.063 147.848)" fill="#00393a"/>
    <path id="Path_180" data-name="Path 180" d="M352.238,735.38q32.492-5.5,62.5-9.455l-7.907-15.331c2.666-.926,14.381,7.854,14.381,7.854l-10.377-44.5C424.241,675.562,431.059,721,431.059,721l14.98-15.363-7.254,17.272c61.219-7.209,114.09-9.883,158.56-9.979l-6.768-13.122c2.666-.926,14.381,7.854,14.381,7.854l-10.377-44.5c13.41,1.617,20.228,47.058,20.228,47.058l14.983-15.363-7.683,18.294a890.611,890.611,0,0,1,91.149,6.191c-6.845-20.442-30.1-39.883-30.1-39.883,17.759,5.282,27.075,14.133,31.943,22.384A358.43,358.43,0,0,0,694.385,578s36.707,79.88,32.024,133.5l-.56,9.521c31.12,4.456,46.766,9.092,46.766,9.092Z" transform="translate(265.633 150.236)" fill="#00393a"/>
    <path id="Path_181" data-name="Path 181" d="M486.238,745.38q32.492-5.5,62.5-9.455l-7.907-15.331c2.666-.926,14.381,7.854,14.381,7.854l-10.377-44.5C558.24,685.562,565.058,731,565.058,731l14.982-15.363-7.254,17.272c61.218-7.209,114.089-9.883,158.559-9.979l-6.768-13.122c2.666-.926,14.381,7.854,14.381,7.854l-10.377-44.5c13.41,1.617,20.229,47.057,20.229,47.057l14.983-15.363-7.683,18.294a890.662,890.662,0,0,1,91.149,6.192c-6.845-20.442-30.1-39.883-30.1-39.883,17.759,5.282,27.075,14.133,31.943,22.384A358.437,358.437,0,0,0,828.385,588s36.707,79.88,32.024,133.5l-.56,9.521c31.12,4.456,46.766,9.092,46.766,9.092Z" transform="translate(50.967 146.256)" fill="#00393a"/>
    <path id="Path_182" data-name="Path 182" d="M43.238,735.38q32.492-5.5,62.5-9.455l-7.907-15.331c2.666-.926,14.381,7.854,14.381,7.854l-10.377-44.5C115.241,675.562,122.059,721,122.059,721l14.983-15.363-7.254,17.272c61.219-7.209,114.09-9.883,158.56-9.979L281.58,699.81c2.666-.926,14.381,7.854,14.381,7.854l-10.377-44.5c13.41,1.617,20.228,47.058,20.228,47.058l14.983-15.363-7.683,18.294a890.614,890.614,0,0,1,91.15,6.191c-6.845-20.442-30.1-39.883-30.1-39.883,17.759,5.282,27.075,14.133,31.943,22.384A358.43,358.43,0,0,0,385.387,578s36.707,79.88,32.024,133.5l-.56,9.521c31.12,4.456,46.766,9.092,46.766,9.092Z" transform="translate(760.645 150.236)" fill="#00393a"/>
    <path id="Path_183" data-name="Path 183" d="M694.566,767.7c-.476,1.972-.731,3.258-.731,3.258l-13.41,7.887s-9.753-22.447-4.877-23.054c.756-.091,1.585-.874,2.451-2.123a3.415,3.415,0,0,1,1.56,3.779,9.363,9.363,0,0,1-.963,2.591c-1.829,3.033,6.1,7.887,6.1,7.887C687.361,771.337,691.7,769.535,694.566,767.7Z" transform="translate(-446.882 87.413)" opacity="0.1"/>
    <path id="Path_185" data-name="Path 185" d="M589.833,299.058a15.018,15.018,0,0,0,13.772-.91" transform="translate(-305.144 268.714)" opacity="0.1"/>
  </g>
</svg>
