<svg xmlns="http://www.w3.org/2000/svg" xmlns:xlink="http://www.w3.org/1999/xlink" width="895.401" height="641.97" viewBox="0 0 895.401 641.97">
  <defs>
    <linearGradient id="linear-gradient" x1="0.507" y1="-0.604" x2="0.495" y2="0.91" gradientUnits="objectBoundingBox">
      <stop offset="0"/>
      <stop offset="1" stop-opacity="0"/>
    </linearGradient>
    <linearGradient id="linear-gradient-2" y1="0.503" x2="1" y2="0.503" gradientUnits="objectBoundingBox">
      <stop offset="0.01"/>
      <stop offset="1" stop-opacity="0"/>
    </linearGradient>
    <linearGradient id="linear-gradient-3" x1="0" y1="0.5" x2="1" y2="0.5" xlink:href="#linear-gradient-2"/>
    <linearGradient id="linear-gradient-4" y1="0.5" x2="1" y2="0.5" gradientUnits="objectBoundingBox">
      <stop offset="0.01"/>
      <stop offset="0.13" stop-opacity="0.69"/>
      <stop offset="1" stop-opacity="0"/>
    </linearGradient>
    <linearGradient id="linear-gradient-5" x1="0.531" y1="-0.485" x2="0.464" y2="2.36" xlink:href="#linear-gradient-4"/>
    <linearGradient id="linear-gradient-6" x1="0.706" y1="0.219" x2="0.328" y2="0.991" xlink:href="#linear-gradient-2"/>
    <linearGradient id="linear-gradient-7" x1="1.054" y1="0.479" x2="-0.956" y2="0.6" xlink:href="#linear-gradient-4"/>
    <linearGradient id="linear-gradient-8" x1="0" y1="0.5" x2="0.999" y2="0.5" xlink:href="#linear-gradient-4"/>
    <linearGradient id="linear-gradient-9" x1="0.001" y1="0.5" x2="1" y2="0.5" xlink:href="#linear-gradient-4"/>
  </defs>
  <g id="watering_plants" transform="translate(389.684 437.229)">
    <path id="Path_186" data-name="Path 186" d="M862.106,486.966a373.25,373.25,0,0,1-20.581,80.825c-6.174,17.227-13.975,52.493-28.032,65.336-26.529,24.373-110.851,22-147.116,25.725-39.1,3.863-78.209,6.721-117.581,8.575q-22.639,1.062-45.155,1.758c-109.081,3.341-218.163.541-327.244-2.26-22.084-.6-44.373-1.2-65.675-6.644-2.676-.676-5.31-1.449-7.924-2.279-42.4-13.519-77.015-47.433-89.261-87.952C.94,528.334,11.293,483.142,30.68,443.723s47.337-74.413,72.035-111.07c13.769-20.433,26.571-41.427,39.1-62.594,31.922-54.077,61.744-109.563,99.943-159.932C261.109,84.654,283.44,59.914,313.18,45.8c21.754-10.294,46.267-14.311,70.553-16.107,30.584-2.26,62.176-1.043,90.661,9.657,61.621,23.176,95.333,84.031,142.382,127.969,67.116,62.671,166.565,94.634,215.9,170.535a193.883,193.883,0,0,1,26.756,65.665A249.336,249.336,0,0,1,862.106,486.966Z" transform="translate(-358.698 -465.965)" fill="#88e0ee" opacity="0.18"/>
    <path id="Path_187" data-name="Path 187" d="M707.221,344.358a343.125,343.125,0,0,1-16.849,70.514c-5.055,15.03-11.441,45.8-22.949,57-21.719,21.264-90.75,19.191-120.438,22.443-32.013,3.37-64.027,5.864-96.259,7.481-120.826-9.924-243.37-8.829-365.105-8.222-34.709-11.794-63.05-41.382-73.075-76.731-10.312-36.394-1.837-75.821,14.035-110.211s38.753-64.92,58.972-96.9c11.272-17.826,21.752-36.142,32.013-54.608,27.464-7.919,54.76-3.37,76.95,22.46,18.366,21.365,28.981,48.1,43.555,72.2,15.552,25.729,36.428,49.065,63.3,62.511s60.337,15.72,86.655,1.2c43.808-24.111,54.794-83.437,93.159-115.417,9.166-7.616,20.371-13.682,32.3-13.479,20.623.3,36.125,18.3,47.936,35.2a725.951,725.951,0,0,1,41.331,66.436c6.352,11.542,13.378,24.162,25.644,28.947,19.528,7.6,39.714-8.425,54.136-23.69A138.887,138.887,0,0,1,705,271.468,231.574,231.574,0,0,1,707.221,344.358Z" transform="translate(-397.714 -347.528)" fill="#88e0ee" opacity="0.23"/>
    <path id="Path_188" data-name="Path 188" d="M503.318,329.667c43.606-.27,87.616-.152,130.261,9.166,6.116,1.331,13.479,4.33,13.816,10.581.286,5.274-4.8,9.1-9.436,11.643-45.493,25.105-99.629,27.38-150.7,37.186-22.376,4.3-44.566,10.11-67.313,11.39-50.177,2.8-98.635-16.849-148.357-24.061-61.011-8.947-123.286.724-184.735-4.246-15.569-1.247-33.024-4.634-41.55-17.725a14.288,14.288,0,0,1-2.595-10.868c1.988-8.121,12.57-9.857,20.91-9.924,113.715-1.1,227.582-10.008,341.533-12C437.791,330.273,470.512,329.667,503.318,329.667Z" transform="translate(-374.097 -225.609)" fill="#0197a5"/>
    <path id="Path_189" data-name="Path 189" d="M503.318,329.667c43.606-.27,87.616-.152,130.261,9.166,6.116,1.331,13.479,4.33,13.816,10.581.286,5.274-4.8,9.1-9.436,11.643-45.493,25.105-99.629,27.38-150.7,37.186-22.376,4.3-44.566,10.11-67.313,11.39-50.177,2.8-98.635-16.849-148.357-24.061-61.011-8.947-123.286.724-184.735-4.246-15.569-1.247-33.024-4.634-41.55-17.725a14.288,14.288,0,0,1-2.595-10.868c1.988-8.121,12.57-9.857,20.91-9.924,113.715-1.1,227.582-10.008,341.533-12C437.791,330.273,470.512,329.667,503.318,329.667Z" transform="translate(-374.097 -225.609)" fill="url(#linear-gradient)"/>
    <path id="Path_190" data-name="Path 190" d="M359,325.037a13.26,13.26,0,0,1,4.128,1.887,61.049,61.049,0,0,0,13.58,5.863c1.87.539,4.229,1.685,3.926,3.572a3.084,3.084,0,0,1-1.415,1.938,13.479,13.479,0,0,1-7.835,1.685,119.121,119.121,0,0,1-24.853-1.9c-4.7-.96-8-5.56-3.37-9.166C346.105,326.722,355.608,324.464,359,325.037Z" transform="translate(-169.707 -228.796)" fill="#3e3e54"/>
    <path id="Path_191" data-name="Path 191" d="M359,325.037a13.26,13.26,0,0,1,4.128,1.887,61.049,61.049,0,0,0,13.58,5.863c1.87.539,4.229,1.685,3.926,3.572a3.084,3.084,0,0,1-1.415,1.938,13.479,13.479,0,0,1-7.835,1.685,119.121,119.121,0,0,1-24.853-1.9c-4.7-.96-8-5.56-3.37-9.166C346.105,326.722,355.608,324.464,359,325.037Z" transform="translate(-169.707 -228.796)" fill="url(#linear-gradient-2)"/>
    <path id="Path_192" data-name="Path 192" d="M336.048,300.216c-19.427,9.688-39.04,19.495-55.5,33.109a34.457,34.457,0,0,0-9.385,10.6,13.041,13.041,0,0,0,.3,13.227c2.039,2.9,5.442,4.65,8.711,6.285,8.9,4.465,18.012,9.014,27.987,10.413a93.433,93.433,0,0,0,15.046.505c9.5-.185,19.023-.371,28.458-1.382,10.834-1.146,21.516-3.37,32.3-4.971a17.962,17.962,0,0,0,8.425-2.679c2.325-1.786,3.37-5.409,1.163-7.38-1.55-1.415-3.976-1.466-6.133-1.432a381.815,381.815,0,0,1-44.987-2.005,352.839,352.839,0,0,0,35.383-7.026c9.082-2.46,18.079-5.712,25.527-11.137s13.21-13.294,14.17-22.039c.505-4.65-.337-9.334-.725-14-.3-3.555-.472-7.464-3.016-10.11-3.488-3.656-9.621-3.286-14.827-2.628l-34.019,4.4a134.773,134.773,0,0,0-14.153,1.685C345.636,294.875,340.615,297.908,336.048,300.216Z" transform="translate(-218.622 -254.692)" fill="#3e3e54"/>
    <path id="Path_193" data-name="Path 193" d="M336.049,300.3c-19.427,9.722-39.04,19.579-55.5,33.26a34.76,34.76,0,0,0-9.385,10.632,13.193,13.193,0,0,0,.3,13.311c2.039,2.9,5.442,4.667,8.711,6.318,8.9,4.482,18.012,9.031,27.987,10.447a95.409,95.409,0,0,0,15.046.522c9.5-.2,19.023-.387,28.458-1.4,10.834-1.163,21.516-3.37,32.3-5.055a17.979,17.979,0,0,0,8.425-2.7c2.325-1.8,3.37-5.442,1.163-7.414-1.55-1.432-3.976-1.466-6.133-1.432a374.747,374.747,0,0,1-44.987-2.039,348.215,348.215,0,0,0,35.383-7.043c9.082-2.477,18.079-5.746,25.527-11.2s13.21-13.345,14.17-22.14c.505-4.667-.337-9.368-.724-14.052-.3-3.572-.472-7.5-3.016-10.11-3.488-3.673-9.621-3.37-14.827-2.645l-34.019,4.415a130.425,130.425,0,0,0-14.153,1.685C345.636,294.944,340.615,297.977,336.049,300.3Z" transform="translate(-218.622 -254.711)" fill="url(#linear-gradient-3)"/>
    <path id="Path_194" data-name="Path 194" d="M199.766,283.153c-6.369-5.644-17.877-11.323-24.634-16.512s-13.008-11.626-15.5-19.764-.286-18.18,6.908-22.73a44.5,44.5,0,0,0,4.954-3,9.486,9.486,0,0,0-1.3-14.76c-7.11-4.077-2.982-17.843,3.521-22.814,4.718-3.606,11.693-4.869,14.187-10.278,2.949-6.4-2.679-13.816-1.432-20.758,1.584-8.829,12.35-11.794,20.623-15.164a52.232,52.232,0,0,0,25.476-22.763,51.306,51.306,0,0,0,2.224,33.934c2.628,6.116,6.47,11.794,8.088,18.2a28.745,28.745,0,0,1-14.254,31.508,18.669,18.669,0,0,1,7.9,33.008c-2.746,2.157-6.049,3.522-8.694,5.8s-4.549,6.015-3.185,9.216c2.174,5.139,10.11,4.549,13.8,8.778s.724,11.609-4.246,14.507-11.053,2.847-16.849,3.538C208.494,274.088,203.22,274.863,199.766,283.153Z" transform="translate(-294.555 -372.86)" fill="#48b267"/>
    <path id="Path_195" data-name="Path 195" d="M199.463,281.619c-6.369-5.644-17.574-9.789-24.33-14.979s-13.008-11.626-15.5-19.764-.286-18.18,6.908-22.73a44.5,44.5,0,0,0,4.954-3,9.486,9.486,0,0,0-1.3-14.76c-7.11-4.077-2.982-17.843,3.521-22.814,4.718-3.606,11.693-4.869,14.187-10.278,2.949-6.4-2.679-13.816-1.432-20.758,1.584-8.829,12.35-11.794,20.623-15.164a52.232,52.232,0,0,0,25.476-22.763,51.306,51.306,0,0,0,2.224,33.934c2.628,6.116,6.47,11.794,8.088,18.2a28.745,28.745,0,0,1-14.254,31.508,18.669,18.669,0,0,1,7.9,33.008c-2.746,2.157-6.049,3.522-8.694,5.8s-4.549,6.015-3.184,9.216c2.174,5.139,10.11,4.549,13.8,8.778s.724,11.609-4.246,14.507-11.053,2.847-16.849,3.538C208.494,274.088,202.9,273.329,199.463,281.619Z" transform="translate(-294.555 -372.12)" fill="url(#linear-gradient-4)"/>
    <path id="Path_196" data-name="Path 196" d="M157.359,330.729a29.233,29.233,0,0,1,53.412-2.8c5.948-6.285,16.849-5.644,23.69-.472s10.564,13.665,12.553,22.072q-30.615,1.685-61.264,1.449c-6.268,0-22.73,2.561-27.852-1.163S155.422,335.8,157.359,330.729Z" transform="translate(-297.102 -237.74)" fill="#0197a5"/>
    <path id="Path_197" data-name="Path 197" d="M157.359,330.729a29.233,29.233,0,0,1,53.412-2.8c5.948-6.285,16.849-5.644,23.69-.472s10.564,13.665,12.553,22.072q-30.615,1.685-61.264,1.449c-6.268,0-22.73,2.561-27.852-1.163S155.422,335.8,157.359,330.729Z" transform="translate(-297.102 -237.74)" fill="url(#linear-gradient-5)"/>
    <path id="Path_198" data-name="Path 198" d="M321.212,310.035c-14.608-8.711-34.355-2.022-49.789-9.149-4.2,2.275-11.794-2.022-9.739,2.308s-4.6,6.133-.758,8.964c14.035,10.312,50.345,17.422,66.369,24.28A13.766,13.766,0,0,0,334.809,338c4.4-.724,7.06-5.139,8.964-9.183a156.7,156.7,0,0,0,14.322-52.62c.657-7.38.775-14.945-1.382-22.039s-2.9-13.159-9.722-16.04c-4.971-2.106-7.5-1.938-11.2,2.881s-5.324,12.89-4.937,18.13C332.113,276.337,325,293.2,321.212,310.035Z" transform="translate(-225.335 -289.144)" fill="#faaf90"/>
    <path id="Path_199" data-name="Path 199" d="M321.212,310.035c-14.608-8.711-34.355-2.022-49.789-9.149-4.2,2.275-11.794-2.022-9.739,2.308s-4.6,6.133-.758,8.964c14.035,10.312,50.345,17.422,66.369,24.28A13.766,13.766,0,0,0,334.809,338c4.4-.724,7.06-5.139,8.964-9.183a156.7,156.7,0,0,0,14.322-52.62c.657-7.38.775-14.945-1.382-22.039s-2.9-13.159-9.722-16.04c-4.971-2.106-7.5-1.938-11.2,2.881s-5.324,12.89-4.937,18.13C332.113,276.337,325,293.2,321.212,310.035Z" transform="translate(-225.335 -289.144)" fill="url(#linear-gradient-6)"/>
    <path id="Path_200" data-name="Path 200" d="M300.072,265.827a3.555,3.555,0,0,0,.253,2.8,6.151,6.151,0,0,0,1.449,1.921,48.745,48.745,0,0,0,25.257,13.345,122.435,122.435,0,0,0,1.028-24.465,45.967,45.967,0,0,0-3.151-15.67,21.567,21.567,0,0,0-7.7-9.537c-4.65-3.05-5.291-9.57-7.751-5.139C304.536,238.009,307.232,251.438,300.072,265.827Z" transform="translate(-197.809 -295.484)" fill="#68e1fd"/>
    <path id="Path_201" data-name="Path 201" d="M300.078,266.708a3.37,3.37,0,0,0,.253,2.8,6.15,6.15,0,0,0,1.449,1.921,48.745,48.745,0,0,0,25.257,13.345,122.444,122.444,0,0,0,1.028-24.465,45.968,45.968,0,0,0-3.151-15.67,21.568,21.568,0,0,0-7.7-9.537c-4.65-3.05-4.061-12.03-6.521-7.6C305.756,236.43,306.211,256.211,300.078,266.708Z" transform="translate(-197.816 -296.365)" fill="url(#linear-gradient-7)"/>
    <path id="Path_202" data-name="Path 202" d="M322.945,218.9c-5.257,2.157-10.666,4.718-13.985,9.334s-4.01,10.345-4.01,15.889c0,18.534,7.009,36.091,13.951,53.193l12.839,31.626c2.157,5.324,4.4,10.75,8.273,14.979,6.318,6.891,16.108,9.52,25.442,10.227,11.879.893,25-1.382,32.856-10.345,5.392-6.184,7.481-14.743,7.11-22.949s-2.932-16.141-5.914-23.791c-11.087-28.509-24.448-48.863-45.981-70.514C344.546,217.47,333.577,214.521,322.945,218.9Z" transform="translate(-194.347 -302.796)" fill="#68e1fd"/>
    <path id="Path_203" data-name="Path 203" d="M295.892,223.207c.64,1.853,3.083,2.14,4.7,3.252,2.645,1.8,3.37,6.1,6.5,6.74,2.511.522,5.291-1.786,7.515-.505a4.735,4.735,0,0,1,1.685,2.376,21.569,21.569,0,0,1,1.449,4.869c.253,1.432.522,3.151,1.836,3.791a4.38,4.38,0,0,0,1.685.286,37.64,37.64,0,0,0,11.609-1.685,7.479,7.479,0,0,0,2.932-1.449c2.477-2.207,1.584-6.184.775-9.4a55.347,55.347,0,0,1-1.685-13.7c0-5.442.775-11.154-1.449-16.125a20.049,20.049,0,0,0-7.077-7.987,16.529,16.529,0,0,0-10.868-3.5c-5.981.657-15.164,7.144-16.04,13.479-.388,2.7.287,5.476,0,8.222C299.06,215.018,294.9,220.427,295.892,223.207Z" transform="translate(-200.656 -321.12)" fill="#faaf90"/>
    <path id="Path_204" data-name="Path 204" d="M317.357,221.116a42.1,42.1,0,0,1-.556,5.779,11.794,11.794,0,0,1-12.873,8.846,4.7,4.7,0,0,1-2.359-.944,5.712,5.712,0,0,1-1.331-2.241,30.63,30.63,0,0,1-2.527-8.526,10.548,10.548,0,0,1,2.426-8.307,18.045,18.045,0,0,1,6.639-3.606,62.933,62.933,0,0,0,9.924-5.055,12.721,12.721,0,0,1,3.741-1.853c5.341-1.23,1.348,3.589.253,5.392a24.008,24.008,0,0,0-3.336,10.514Z" transform="translate(-199.375 -310.942)" fill="#3e3e54"/>
    <path id="Path_205" data-name="Path 205" d="M300.423,193.567c-3.555,1.1-7.616,1.9-9.722,5.055a8.172,8.172,0,0,0,1.5,10.228,11.609,11.609,0,0,0,10.531,2.376c5.19-1.247,10.615-5.257,15.249-2.612s5.156,11,10.531,11.794c-.472-2.73-1.331-3.673-1.8-6.386,1.533-4.869,3.639-.758,4.212.826a16.528,16.528,0,0,1,.522,5.055,18.821,18.821,0,0,0,4.751,11.508c1.685,1.9,4.364,3.538,6.74,2.544,2.78-1.163,3.1-4.9,2.966-7.919q-.4-9.671-1.011-19.36a26.959,26.959,0,0,0-1.331-8.037,18.989,18.989,0,0,0-4.768-6.74,25.072,25.072,0,0,0-19.579-7.312C312.5,185.16,307.163,191.512,300.423,193.567Z" transform="translate(-204.901 -324.977)" fill="#3e3e54"/>
    <path id="Path_206" data-name="Path 206" d="M345.047,299.741c-19.427,10.413-39.04,20.944-55.5,35.6a36.561,36.561,0,0,0-9.385,11.39c-2.089,4.482-2.409,10.109.3,14.221,2.039,3.117,5.442,5.055,8.728,6.74,8.88,4.8,17.995,9.671,27.97,11.188a86.279,86.279,0,0,0,15.046.539c9.5-.185,19.023-.388,28.458-1.483,10.851-1.23,21.516-3.639,32.3-5.341,2.982-.472,6.133-.96,8.425-2.881s3.37-5.83,1.163-7.936c-1.55-1.533-3.976-1.567-6.133-1.533a351.914,351.914,0,0,1-44.987-2.174,332.5,332.5,0,0,0,35.383-7.548c9.082-2.645,18.079-6.15,25.526-11.98s13.21-14.288,14.17-23.707c.505-5.055-.337-10.025-.724-15.046-.3-3.825-.472-8.02-3.016-10.885-3.488-3.943-9.621-3.538-14.827-2.831l-34.019,4.684c-4.6.623-9.705.691-14.153,1.853C354.617,294.046,349.6,297.3,345.047,299.741Z" transform="translate(-212.456 -255.733)" fill="#3e3e54"/>
    <path id="Path_207" data-name="Path 207" d="M324.876,299.415a482.482,482.482,0,0,0-39.7-32.013c-4.532,1.415-6.487,7.178-5.375,11.794s4.465,8.425,7.7,11.794c11.794,12.822,23.875,25.611,38.281,35.383a13.8,13.8,0,0,0,7.077,2.966c4.448.135,7.936-3.69,10.564-7.279A156.513,156.513,0,0,0,367.572,273.2c2.073-7.11,3.639-14.524,2.881-21.9s-4.162-14.743-10.312-18.888c-4.482-3.016-13.159-4.92-17.725-.893s-3.286,12.839-3.909,18.045a175.668,175.668,0,0,1-13.631,49.857Z" transform="translate(-211.779 -294.363)" fill="#faaf90"/>
    <path id="Path_208" data-name="Path 208" d="M314.025,248.155l-3.1,25.459a2.949,2.949,0,0,0,1.971,3.707,150.51,150.51,0,0,0,23.117,10.564,19.983,19.983,0,0,0,10.935,1.415,3.37,3.37,0,0,0,1.786-.893,3.841,3.841,0,0,0,.674-1.769,133.7,133.7,0,0,0,2.174-17.372,59.985,59.985,0,0,0-.927-16.748c-1.23-5.476-3.521-22.932-7.582-26.807-5.24-5.055-11.306-3.37-18.433-2.443S314.716,242.528,314.025,248.155Z" transform="translate(-190.347 -299.143)" fill="#68e1fd"/>
    <path id="Path_209" data-name="Path 209" d="M367.345,328.615a13.713,13.713,0,0,1,4.111,1.87,59.524,59.524,0,0,0,13.58,5.864c1.87.539,4.229,1.685,3.943,3.572a3.134,3.134,0,0,1-1.415,1.955,13.479,13.479,0,0,1-7.835,1.685,120.262,120.262,0,0,1-24.853-1.887c-4.7-.96-8-5.577-3.37-9.166C354.472,330.249,363.975,327.974,367.345,328.615Z" transform="translate(-163.988 -226.359)" fill="#3e3e54"/>
    <path id="Path_210" data-name="Path 210" d="M5.341,0H40.067a5.274,5.274,0,0,1,5.274,5.274V32.805a22.645,22.645,0,0,1-22.7,22.645h0A22.645,22.645,0,0,1,0,32.805V5.291A5.274,5.274,0,0,1,5.274.017Z" transform="translate(0.206 -23.666) rotate(-16.51)" fill="#68e1fd"/>
    <path id="Path_211" data-name="Path 211" d="M273.391,277.239l-2.258-5.762c1.415-.573,5.425-2.746,6.74-5.88a6.251,6.251,0,0,0-.185-5.055c-2.864-6.874-9.5-4.886-10.817-4.414l-2.14-5.8c4.6-1.769,14.44-2.308,18.669,7.835a12.316,12.316,0,0,1,.152,9.823C280.989,274.055,274.165,276.936,273.391,277.239Z" transform="translate(-221.895 -280.594)" fill="#68e1fd"/>
    <path id="Path_212" data-name="Path 212" d="M228.025,260.31l27.548,4.549,4.65,15.72-32.856-15.838S224.385,260.782,228.025,260.31Z" transform="translate(-248.273 -273.067)" fill="#68e1fd"/>
    <path id="Path_213" data-name="Path 213" d="M277.449,248.564a1.685,1.685,0,0,0-1.281.623c-.27.556.118,1.179.169,1.786a2.561,2.561,0,0,1-1.483,2.275,18.951,18.951,0,0,0-2.527,1.331,5.055,5.055,0,0,0-1.685,4.33,13.833,13.833,0,0,0,1.415,4.566c1.23,2.746,2.814,5.7,5.644,6.74a11.794,11.794,0,0,0,4.735.32l12.2-.859a1.483,1.483,0,0,0,.859-.27,1.3,1.3,0,0,0,.27-.691c.876-5.156-1.887-11.306-4.5-15.619S281.8,248.008,277.449,248.564Z" transform="translate(-217.866 -281.22)" fill="#faaf90"/>
    <path id="Path_214" data-name="Path 214" d="M178.317,138.91,171.56,389.491l7.363,6.15Z" transform="translate(-272.179 -307.842)" fill="#00393a"/>
    <path id="Path_215" data-name="Path 215" d="M203.712,351.093s-4.5-18.012-7.768-33.159S207,302.769,212.794,292.542s-18.837-26.6-4.92-43,33.176-7.768,28.644-23.336-7.768-20.876,11.474-24.145,27.431,7.767,29.891-6.976,5.324-20.051,24.97-18.821,27.431-4.516,27.431-4.516,6.554,3.69,1.685,8.61-3.69,4.094,2.443,15.164-14.322,9.419-19.242,21.7,12.7,10.649,1.685,24.145-30.329-9.4-25.8,10.649,15.569,21.3,1.685,27.852-31.34,4.364-25.493,15.687,15.653,20.758,1.685,20.337-31.929-8.189-29.469,2.46,10.632,18.837-2.46,22.527S203.712,351.093,203.712,351.093Z" transform="translate(-269.335 -333.724)" fill="#48b267"/>
    <path id="Path_216" data-name="Path 216" d="M222.278,349.626s4.5-18.012,7.768-33.159S218.993,301.3,213.2,291.075s18.837-26.6,4.92-42.982-33.176-7.784-28.644-23.336S197.24,203.864,178,200.595s-27.43,7.784-29.89-6.959-5.324-20.067-24.971-18.837-27.43-4.5-27.43-4.5-6.554,3.673-1.685,8.593,3.673,4.094-2.46,15.164,14.322,9.419,19.242,21.7-12.687,10.649-1.685,24.162,30.329-9.419,25.8,10.632-15.569,21.3-1.685,27.852,31.34,4.364,25.493,15.687-15.653,20.758-1.685,20.337,32.013-8.189,29.486,2.46-10.649,18.837,2.443,22.527S222.278,349.626,222.278,349.626Z" transform="translate(-341.28 -334.717)" fill="#48b267"/>
    <path id="Path_217" data-name="Path 217" d="M203.712,351.093s-4.5-18.012-7.768-33.159S207,302.769,212.794,292.542s-18.837-26.6-4.92-43,33.176-7.768,28.644-23.336-7.768-20.876,11.474-24.145,27.431,7.767,29.891-6.976,5.324-20.051,24.97-18.821,27.431-4.516,27.431-4.516,6.554,3.69,1.685,8.61-3.69,4.094,2.443,15.164-14.322,9.419-19.242,21.7,12.7,10.649,1.685,24.145-30.329-9.4-25.8,10.649,15.569,21.3,1.685,27.852-31.34,4.364-25.493,15.687,15.653,20.758,1.685,20.337-31.929-8.189-29.469,2.46,10.632,18.837-2.46,22.527S203.712,351.093,203.712,351.093Z" transform="translate(-269.335 -333.724)" fill="url(#linear-gradient-8)"/>
    <path id="Path_218" data-name="Path 218" d="M222.278,349.626s4.5-18.012,7.768-33.159S218.993,301.3,213.2,291.075s18.837-26.6,4.92-42.982-33.176-7.784-28.644-23.336S197.24,203.864,178,200.595s-27.43,7.784-29.89-6.959-5.324-20.067-24.971-18.837-27.43-4.5-27.43-4.5-6.554,3.673-1.685,8.593,3.673,4.094-2.46,15.164,14.322,9.419,19.242,21.7-12.687,10.649-1.685,24.162,30.329-9.419,25.8,10.632-15.569,21.3-1.685,27.852,31.34,4.364,25.493,15.687-15.653,20.758-1.685,20.337,32.013-8.189,29.486,2.46-10.649,18.837,2.443,22.527S222.278,349.626,222.278,349.626Z" transform="translate(-342.02 -334.717)" fill="url(#linear-gradient-9)"/>
    <path id="Path_219" data-name="Path 219" d="M305.919,186.955s-103.791,108.509-111.2,192.081l-4.094,41.769h9.419s-13.682-73.547,56.933-168.745S305.919,186.955,305.919,186.955Z" transform="translate(-272.654 -326.402)" fill="#00393a"/>
    <path id="Path_220" data-name="Path 220" d="M96.11,175.28s57.1,39.309,82.376,76.765,55.889,121.6,48.509,160.91l-3.875,1.685S227.551,255.684,96.11,175.28Z" transform="translate(-337.386 -331.306)" fill="#00393a"/>
  </g>
</svg>
